<?xml version="1.0" standalone="no"?>
<!DOCTYPE svg PUBLIC "-//W3C//DTD SVG 1.1//EN" "http://www.w3.org/Graphics/SVG/1.1/DTD/svg11.dtd" >
<svg xmlns="http://www.w3.org/2000/svg" xmlns:xlink="http://www.w3.org/1999/xlink" version="1.1">
<metadata>
Created by FontForge 20170731 at Fri Aug 29 01:56:04 2014
 By Aleksey,,,
Copyright (c) 2014 by Charles Daoud. All rights reserved.
</metadata>
<defs>
<font id="Voga-Medium" horiz-adv-x="418" >
  <font-face 
    font-family="Voga"
    font-weight="500"
    font-stretch="normal"
    units-per-em="1000"
    panose-1="2 0 6 6 9 0 0 2 0 4"
    ascent="845"
    descent="-155"
    x-height="500"
    cap-height="700"
    bbox="-85 -155 839 909"
    underline-thickness="50"
    underline-position="-200"
    unicode-range="U+0020-FB02"
  />
<missing-glyph horiz-adv-x="125" 
 />
    <glyph glyph-name="fi" unicode="fi" horiz-adv-x="426" 
d="M202 620q0 19 14 32t35 13q-19 30 -59 30q-50 0 -50 -85v-110h80v-10h-80v-480h40v-10h-160v10h40v480h-40v10h40v70q0 71 37 103t93 32q41 0 70.5 -25t29.5 -60q0 -19 -13 -32t-32 -13t-32 13t-13 32zM277 500h-30v-10h40v-480h-40v-10h160v10h-40v570h-10
q0 -33 -23.5 -56.5t-56.5 -23.5z" />
    <glyph glyph-name="fl" unicode="fl" horiz-adv-x="417" 
d="M238 0v10h40v685h-83q-22 0 -37.5 -33.5t-15.5 -79.5v-82h85v-10h-85v-480h40v-10h-160v10h40v480h-40v10h40v82q0 51 39 87t94 36h163v-695h40v-10h-160z" />
    <glyph glyph-name=".notdef" horiz-adv-x="125" 
 />
    <glyph glyph-name=".null" horiz-adv-x="0" 
 />
    <glyph glyph-name="nonmarkingreturn" horiz-adv-x="333" 
 />
    <glyph glyph-name="space" unicode=" " horiz-adv-x="169" 
 />
    <glyph glyph-name="exclam" unicode="!" horiz-adv-x="176" 
d="M38 40q0 21 14.5 35.5t35.5 14.5t35.5 -14.5t14.5 -35.5t-14.5 -35.5t-35.5 -14.5t-35.5 14.5t-14.5 35.5zM138 640q0 -19 -22.5 -191.5t-22.5 -318.5h-10q0 146 -22.5 318.5t-22.5 191.5q0 34 14 52t36 18t36 -18t14 -52z" />
    <glyph glyph-name="quotedbl" unicode="&#x22;" horiz-adv-x="270" 
d="M25 660q0 21 14.5 35.5t35.5 14.5t35.5 -14.5t14.5 -35.5q0 -15 -22.5 -64.5t-22.5 -65.5h-10q0 16 -22.5 65.5t-22.5 64.5zM145 660q0 21 14.5 35.5t35.5 14.5t35.5 -14.5t14.5 -35.5q0 -15 -22.5 -64.5t-22.5 -65.5h-10q0 16 -22.5 65.5t-22.5 64.5z" />
    <glyph glyph-name="numbersign" unicode="#" horiz-adv-x="622" 
d="M62 445v50h160l36 205h50l-36 -205h130l36 205h50l-36 -205h148v-50h-157l-34 -190h151v-50h-160l-36 -205h-50l36 205h-130l-36 -205h-50l36 205h-148v50h157l34 190h-151zM263 445l-34 -190h130l34 190h-130z" />
    <glyph glyph-name="dollar" unicode="$" horiz-adv-x="366" 
d="M179 710v80h10v-81q54 -4 94.5 -40t40.5 -84q0 -19 -13.5 -32t-31.5 -13q-19 0 -32 13t-13 32t13 32t32 13q7 0 11 -2q-13 31 -39.5 50t-56.5 19h-5v-276q75 -63 101 -96q54 -69 54 -155q0 -74 -44 -126t-111 -54v-80h-10v80q-62 2 -108.5 41.5t-46.5 93.5q0 19 13.5 32
t31.5 13q19 0 32 -13t13 -32t-13 -32t-32 -13q-6 0 -9 1q16 -35 48.5 -56.5t65.5 -21.5h5v296q-35 28 -53.5 46t-43.5 48.5t-36.5 67t-11.5 79.5q0 72 41 121t104 49zM294 130q0 34 -16.5 65t-35.5 49.5t-53 46.5v-287q45 5 75 41t30 85zM84 580q0 -44 24 -77.5t71 -73.5
v267q-41 -6 -68 -38.5t-27 -77.5z" />
    <glyph glyph-name="percent" unicode="%" horiz-adv-x="594" 
d="M184 394v220q0 86 -42 86t-42 -86v-220q0 -86 42 -86t42 86zM30 394v220q0 40 33 68t79 28t79 -28t33 -68v-220q0 -40 -33 -68t-79 -28t-79 28t-33 68zM139 0h-10l327 700h10zM494 86v220q0 86 -42 86t-42 -86v-220q0 -86 42 -86t42 86zM340 86v220q0 40 33 68t79 28
t79 -28t33 -68v-220q0 -40 -33 -68t-79 -28t-79 28t-33 68z" />
    <glyph glyph-name="ampersand" unicode="&#x26;" horiz-adv-x="538" 
d="M286 585q0 19 13 32t32 13q6 0 9 -1q-20 71 -99 71q-35 0 -60 -44t-25 -106t25 -106t60 -44h45v-10q-84 0 -134.5 -56t-50.5 -139q0 -81 48 -138t117 -57q74 0 127 53t53 127q0 59 -35 107h-77q-26 0 -44.5 -18.5t-18.5 -44.5q0 -31 23 -51q-5 12 -5 23q0 19 13 32t32 13
t32 -13t13 -32t-13 -32t-32 -13q-38 0 -65.5 27.5t-27.5 65.5t27.5 65.5t65.5 27.5h100q26 0 44.5 18.5t18.5 44.5q0 31 -23 49q5 -12 5 -21q0 -19 -13 -32t-32 -13t-32 13t-13 32t13 32t32 13q38 0 65.5 -27.5t27.5 -65.5t-27.5 -65.5t-65.5 -27.5h-11q33 -49 33 -107
q0 -79 -55.5 -134.5t-134.5 -55.5q-112 0 -178.5 59t-66.5 146q0 73 50.5 129.5t122.5 71.5q-49 15 -83.5 57t-34.5 97q0 70 49 115t116 45q63 0 99 -41.5t36 -83.5q0 -19 -13 -32t-32 -13t-32 13t-13 32z" />
    <glyph glyph-name="quotesingle" unicode="'" horiz-adv-x="150" 
d="M25 660q0 21 14.5 35.5t35.5 14.5t35.5 -14.5t14.5 -35.5q0 -15 -22.5 -64.5t-22.5 -65.5h-10q0 16 -22.5 65.5t-22.5 64.5z" />
    <glyph glyph-name="parenleft" unicode="(" horiz-adv-x="223" 
d="M216 -126q-70 0 -120 47t-50 113v566q0 66 50 113t120 47v-10q-37 0 -63.5 -44t-26.5 -106v-566q0 -62 26.5 -106t63.5 -44v-10z" />
    <glyph glyph-name="parenright" unicode=")" horiz-adv-x="223" 
d="M7 -126v10q37 0 63.5 44t26.5 106v566q0 62 -26.5 106t-63.5 44v10q70 0 120 -47t50 -113v-566q0 -66 -50 -113t-120 -47z" />
    <glyph glyph-name="asterisk" unicode="*" horiz-adv-x="328" 
d="M199 587l-25 -15l25 -14l34 -3l52 -30l-20 -34l-52 30l-19 28l-25 14v-29l15 -30v-60h-40v60l15 30v29l-25 -14l-19 -28l-52 -30l-20 34l52 30l34 2l25 14l-25 15l-34 3l-52 30l20 34l52 -30l19 -28l25 -14v29l-15 30v60h40v-60l-15 -30v-30l25 15l19 28l52 30l20 -34
l-52 -30z" />
    <glyph glyph-name="plus" unicode="+" horiz-adv-x="392" 
d="M31 325v50h140v140h50v-140h140v-50h-140v-140h-50v140h-140z" />
    <glyph glyph-name="comma" unicode="," horiz-adv-x="170" 
d="M34 40q0 21 14.5 36t35.5 15q19 0 33 -12.5t17 -31.5q1 -5 1 -16q0 -40 -28 -70.5t-62 -30.5v10q18 0 37 16.5t23 38.5q-10 -5 -21 -5q-21 0 -35.5 14.5t-14.5 35.5z" />
    <glyph glyph-name="hyphen" unicode="-" horiz-adv-x="344" 
d="M47 225v50h250v-50h-250z" />
    <glyph glyph-name="period" unicode="." horiz-adv-x="168" 
d="M34 40q0 21 14.5 35.5t35.5 14.5t35.5 -14.5t14.5 -35.5t-14.5 -35.5t-35.5 -14.5t-35.5 14.5t-14.5 35.5z" />
    <glyph glyph-name="slash" unicode="/" horiz-adv-x="246" 
d="M223 700l-151 -855h-50l151 855h50z" />
    <glyph glyph-name="zero" unicode="0" horiz-adv-x="412" 
d="M46 150v400q0 67 45.5 113.5t114.5 46.5t114.5 -46.5t45.5 -113.5v-400q0 -67 -45.5 -113.5t-114.5 -46.5t-114.5 46.5t-45.5 113.5zM286 150v400q0 62 -21 106l-110 -625q20 -31 51 -31q37 0 58.5 43t21.5 107zM126 150q0 -66 21 -106l109 626q-22 30 -50 30
q-37 0 -58.5 -43t-21.5 -107v-400z" />
    <glyph glyph-name="one" unicode="1" horiz-adv-x="242" 
d="M24 670v11l130 19h10v-690h60v-10h-200v10h60v668z" />
    <glyph glyph-name="two" unicode="2" horiz-adv-x="366" 
d="M23 0v40q147 275 188.5 373.5t41.5 156.5q0 60 -22.5 95t-62.5 35q-79 0 -99 -70q25 0 39.5 -13t14.5 -32t-13 -32t-32 -13q-18 0 -31.5 13t-13.5 32q0 43 35.5 84t99.5 41q69 0 117 -42t48 -118q0 -36 -7 -65t-32 -72t-47.5 -75t-80.5 -112.5t-103 -145.5h250v40h10
v-120h-300z" />
    <glyph glyph-name="three" unicode="3" horiz-adv-x="385" 
d="M37 585q0 43 35.5 84t99.5 41q67 0 116 -45t49 -115v-35q0 -53 -40.5 -97t-91.5 -58q54 -15 98 -59t44 -96v-55q0 -70 -52.5 -115t-122.5 -45q-64 0 -104.5 41.5t-40.5 83.5q0 19 13.5 32t31.5 13q19 0 32 -13t13 -32t-14.5 -32t-37.5 -13q24 -70 107 -70q41 0 68 32.5
t27 77.5v95q0 60 -31 105t-69 45h-50v10h50q37 0 63.5 44t26.5 106v75q0 46 -23.5 78t-61.5 32q-79 0 -99 -70q25 0 39.5 -13t14.5 -32t-13 -32t-32 -13t-32 13t-13 32z" />
    <glyph glyph-name="four" unicode="4" horiz-adv-x="396" 
d="M327 192h-20v-182h60v-10h-200v10h60v182h-220v10l290 508h10v-508h50v40h10v-95h-10q0 29 -7.5 37t-22.5 8zM18 202h209v366z" />
    <glyph glyph-name="five" unicode="5" horiz-adv-x="378" 
d="M346 275v-125q0 -66 -51 -113t-124 -47q-67 0 -106 41t-39 84q0 19 13.5 32t31.5 13q19 0 32 -13t13 -32t-13 -32t-32 -13h-7q24 -70 107 -70q39 0 67 32t28 78v205q0 46 -25 78t-60 32q-59 0 -90.5 -38t-34.5 -77l-10 1l33 389h227v40h10v-120h-234l-21 -255
q36 70 120 70q68 0 116.5 -47t48.5 -113z" />
    <glyph glyph-name="six" unicode="6" horiz-adv-x="387" 
d="M119 362q12 30 36.5 49t53.5 19q63 0 106.5 -47t43.5 -113v-120q0 -65 -48.5 -112.5t-111.5 -47.5t-111.5 47.5t-48.5 112.5v159q0 82 21 151t52.5 112t70 73t70.5 42.5t56 12.5v-10q-13 0 -34.5 -11t-49 -37.5t-51 -62.5t-39.5 -93.5t-16 -123.5zM119 310v-200
q0 -37 22.5 -73.5t57.5 -36.5t57.5 36.5t22.5 73.5v200q0 40 -17.5 75t-52.5 35q-37 0 -63.5 -32t-26.5 -78z" />
    <glyph glyph-name="seven" unicode="7" horiz-adv-x="334" 
d="M326 700v-60q-10 -19 -22.5 -47t-34.5 -91.5t-39 -132.5t-30.5 -168.5t-13.5 -200.5h-80q0 53 12.5 119.5t29 122t42.5 123.5t43 106.5t41 91t26 57.5h-274v-40h-10v120h310z" />
    <glyph glyph-name="eight" unicode="8" horiz-adv-x="411" 
d="M232 384q30 -22 43.5 -32t38 -33.5t35.5 -43.5t21 -52t10 -68q0 -69 -50 -117t-125 -48t-125 48t-50 117q0 25 7 46t15 35.5t31 36.5t37 33.5t52 41.5q-29 22 -45 36.5t-37 40t-30.5 56.5t-9.5 69q0 67 44 113.5t111 46.5t111 -46.5t44 -113.5q0 -32 -19 -62t-39 -47.5
t-70 -56.5zM180 341q-31 -25 -50.5 -74.5t-19.5 -111.5q0 -66 26 -110.5t69 -44.5t69 44.5t26 110.5q0 28 -7 52.5t-15.5 40.5t-28 35t-31 28.5t-38.5 29.5zM223 391q57 47 57 159q0 150 -75 150t-75 -150q0 -54 23 -88.5t70 -70.5z" />
    <glyph glyph-name="nine" unicode="9" horiz-adv-x="387" 
d="M268 338q-12 -30 -36.5 -49t-53.5 -19q-63 0 -106.5 47t-43.5 113v120q0 65 48.5 112.5t111.5 47.5t111.5 -47.5t48.5 -112.5v-159q0 -82 -21 -151t-52.5 -112t-70 -73t-70.5 -42.5t-56 -12.5v10q13 0 34.5 11t49 37.5t51 62.5t39.5 93.5t16 123.5zM268 390v200
q0 37 -22.5 73.5t-57.5 36.5t-57.5 -36.5t-22.5 -73.5v-200q0 -40 17.5 -75t52.5 -35q37 0 63.5 32t26.5 78z" />
    <glyph glyph-name="colon" unicode=":" horiz-adv-x="194" 
d="M47 40q0 21 14.5 35.5t35.5 14.5t35.5 -14.5t14.5 -35.5t-14.5 -35.5t-35.5 -14.5t-35.5 14.5t-14.5 35.5zM47 390q0 21 14.5 35.5t35.5 14.5t35.5 -14.5t14.5 -35.5t-14.5 -35.5t-35.5 -14.5t-35.5 14.5t-14.5 35.5z" />
    <glyph glyph-name="semicolon" unicode=";" horiz-adv-x="196" 
d="M47 40q0 21 14.5 36t35.5 15q19 0 33 -12.5t17 -31.5q1 -5 1 -16q0 -40 -28 -70.5t-62 -30.5v10q18 0 37 16.5t23 38.5q-10 -5 -21 -5q-21 0 -35.5 14.5t-14.5 35.5zM47 390q0 21 14.5 35.5t35.5 14.5t35.5 -14.5t14.5 -35.5t-14.5 -35.5t-35.5 -14.5t-35.5 14.5
t-14.5 35.5z" />
    <glyph glyph-name="less" unicode="&#x3c;" horiz-adv-x="387" 
d="M28 323v54l312 145v-53l-258 -119l258 -119v-53z" />
    <glyph glyph-name="equal" unicode="=" horiz-adv-x="426" 
d="M48 265v50h330v-50h-330zM48 385v50h330v-50h-330z" />
    <glyph glyph-name="greater" unicode="&#x3e;" horiz-adv-x="387" 
d="M359 377v-54l-312 -145v53l258 119l-258 119v53z" />
    <glyph glyph-name="question" unicode="?" horiz-adv-x="346" 
d="M20 585q0 44 35 84.5t100 40.5q67 0 116 -45t49 -115v-90q0 -70 -52.5 -115t-122.5 -45v-170h-10v180h10q41 0 68 32.5t27 77.5v170q0 46 -23.5 78t-61.5 32q-79 0 -99 -70q25 0 39.5 -13t14.5 -32t-13 -32t-32 -13t-32 13t-13 32zM90 40q0 21 14.5 35.5t35.5 14.5
t35.5 -14.5t14.5 -35.5t-14.5 -35.5t-35.5 -14.5t-35.5 14.5t-14.5 35.5z" />
    <glyph glyph-name="at" unicode="@" horiz-adv-x="733" 
d="M669 200l8 -5q-50 -93 -138 -149t-189 -56q-149 0 -241.5 105t-78.5 255q13 150 123.5 255t259.5 105q150 0 235 -107.5t46 -252.5q-21 -77 -94.5 -131.5t-150.5 -54.5q-52 0 -53 49q-15 -21 -42 -35t-59 -14q-95 0 -119 83q-21 75 23 165q43 89 119 117q26 10 54 10
q55 0 72 -41l6 31h70l-43 -241q-18 -100 2 -106q5 -2 20 2q103 28 129 166q16 72 9 136t-31 111.5t-74 75t-120 27.5q-138 0 -219 -98.5t-94 -251.5q-14 -153 50 -251.5t202 -98.5q98 0 183.5 55t134.5 145zM307 174q24 0 55.5 19.5t36.5 45.5l39 225q5 27 -15 46t-43 19
q-72 0 -111 -88.5t-26.5 -177.5t64.5 -89z" />
    <glyph glyph-name="A" unicode="A" horiz-adv-x="400" 
d="M-6 0v10q48 0 56 38l140 662h16l154 -700h40v-10h-162v10h40l-42 195h-143l-41 -195h38v-10h-96zM163 533l-68 -318h139z" />
    <glyph glyph-name="B" unicode="B" horiz-adv-x="413" 
d="M30 10h40v680h-40v10h160q79 0 129.5 -46.5t50.5 -113.5v-20q0 -64 -43.5 -101.5t-106.5 -53.5q65 -17 112.5 -54.5t47.5 -100.5v-50q0 -67 -50.5 -113.5t-129.5 -46.5h-170v10zM300 160v50q0 64 -33.5 107t-76.5 43h-40v-350h50q41 0 70.5 44t29.5 106zM290 520v20
q0 62 -29.5 106t-70.5 44h-40v-320h40q42 0 71 42t29 108z" />
    <glyph glyph-name="C" unicode="C" horiz-adv-x="361" 
d="M319 150h10v-150h-10q0 36 -26 36q-36 -46 -94 -46q-62 0 -106 47t-44 113v400q0 66 44 113t106 47q59 0 94 -46q26 0 26 36h10v-150h-10q0 64 -32.5 107t-77.5 43q-37 0 -58.5 -43t-21.5 -107v-400q0 -64 21.5 -107t58.5 -43q45 0 77.5 43t32.5 107z" />
    <glyph glyph-name="D" unicode="D" 
d="M30 10h40v680h-40v10h160q79 0 129.5 -46.5t50.5 -113.5v-380q0 -67 -50.5 -113.5t-129.5 -46.5h-160v10zM290 160v380q0 62 -29.5 106t-70.5 44h-40v-680h40q41 0 70.5 44t29.5 106z" />
    <glyph glyph-name="E" unicode="E" horiz-adv-x="356" 
d="M320 700v-140h-10q0 54 -19 92t-46 38h-95v-335h60q16 0 28 23.5t12 56.5h10v-170h-10q0 33 -12 56.5t-28 23.5h-60v-335h95q27 0 46 38t19 92h10v-140h-290v10h40v680h-40v10h290z" />
    <glyph glyph-name="F" unicode="F" horiz-adv-x="340" 
d="M190 10v-10h-160v10h40v680h-40v10h290v-140h-10q0 54 -19 92t-46 38h-95v-335h60q16 0 28 23.5t12 56.5h10v-170h-10q0 33 -12 56.5t-28 23.5h-60v-335h40z" />
    <glyph glyph-name="G" unicode="G" horiz-adv-x="402" 
d="M349 339v-287q-37 0 -80 -31t-70 -31q-62 0 -106 47t-44 113v400q0 66 44 113t106 47q59 0 94 -46q26 0 26 36h10v-150h-10q0 64 -32.5 107t-77.5 43q-37 0 -58.5 -43t-21.5 -107v-400q0 -62 20.5 -106t49.5 -44t49.5 44t20.5 106v189h-40v10h160v-10h-40z" />
    <glyph glyph-name="H" unicode="H" horiz-adv-x="440" 
d="M250 700h160v-10h-40v-680h40v-10h-160v10h40v335h-140v-335h40v-10h-160v10h40v680h-40v10h160v-10h-40v-335h140v335h-40v10z" />
    <glyph glyph-name="I" unicode="I" horiz-adv-x="220" 
d="M30 700h160v-10h-40v-680h40v-10h-160v10h40v680h-40v10z" />
    <glyph glyph-name="J" unicode="J" horiz-adv-x="232" 
d="M170 690v-600q0 -70 -50 -120t-120 -50v10q37 0 63.5 47t26.5 113v600h-40v10h160v-10h-40z" />
    <glyph glyph-name="K" unicode="K" horiz-adv-x="407" 
d="M30 700h160v-10h-40v-355l188 355h-37v10h98v-10q-50 0 -67 -33l-99 -187l148 -460h40v-10h-159v10h39l-119 365l-32 -60v-305h40v-10h-160v10h40v680h-40v10z" />
    <glyph glyph-name="L" unicode="L" horiz-adv-x="337" 
d="M320 0h-290v10h40v680h-40v10h160v-10h-40v-680h95q27 0 46 38t19 92h10v-140z" />
    <glyph glyph-name="M" unicode="M" horiz-adv-x="531" 
d="M25 700h118l128 -532l110 532h120v-10h-40v-680h40v-10h-160v10h40v641l-135 -651h-16l-150 622v-612h40v-10h-95v10q45 0 45 30v620q0 30 -45 30v10z" />
    <glyph glyph-name="N" unicode="N" horiz-adv-x="394" 
d="M25 700h107l186 -498v488h-40v10h95v-10q-45 0 -45 -30v-660h-16l-232 623v-613h40v-10h-95v10q45 0 45 30v620q0 30 -45 30v10z" />
    <glyph glyph-name="O" unicode="O" 
d="M289 150v400q0 64 -21.5 107t-58.5 43t-58.5 -43t-21.5 -107v-400q0 -64 21.5 -107t58.5 -43t58.5 43t21.5 107zM49 150v400q0 67 45.5 113.5t114.5 46.5t114.5 -46.5t45.5 -113.5v-400q0 -67 -45.5 -113.5t-114.5 -46.5t-114.5 46.5t-45.5 113.5z" />
    <glyph glyph-name="P" unicode="P" horiz-adv-x="396" 
d="M190 300h-40v-290h40v-10h-160v10h40v680h-40v10h160q79 0 129.5 -46.5t50.5 -113.5v-80q0 -67 -50.5 -113.5t-129.5 -46.5zM190 690h-40v-380h40q41 0 70.5 44t29.5 106v80q0 62 -29.5 106t-70.5 44z" />
    <glyph glyph-name="Q" unicode="Q" 
d="M196 -137q-46 28 -79 25t-33 -38h-10q0 52 27.5 91.5t69.5 52.5q-55 12 -88.5 55.5t-33.5 100.5v400q0 67 45.5 113.5t114.5 46.5t114.5 -46.5t45.5 -113.5v-400q0 -67 -45.5 -113.5t-114.5 -46.5q-71 0 -108 -70q22 22 53 24.5t67 -17.5q48 -28 80 -25t32 38h10
q0 -58 -44.5 -83.5t-102.5 6.5zM209 0q37 0 58.5 43t21.5 107v400q0 64 -21.5 107t-58.5 43t-58.5 -43t-21.5 -107v-400q0 -63 22 -106.5t58 -43.5z" />
    <glyph glyph-name="R" unicode="R" horiz-adv-x="427" 
d="M190 340h-40v-330h40v-10h-160v10h40v680h-40v10h160q79 0 129.5 -46.5t50.5 -113.5v-40q0 -56 -36 -99t-96 -56q60 -13 96 -56t36 -99v-135q0 -14 6 -24t14 -10t14 10t6 24h10q0 -27 -19 -46t-46 -19t-46 19t-19 46v135q0 62 -29.5 106t-70.5 44zM190 690h-40v-340h40
q41 0 70.5 44t29.5 106v40q0 62 -29.5 106t-70.5 44z" />
    <glyph glyph-name="S" unicode="S" horiz-adv-x="361" 
d="M36 0v160h10q0 -65 37 -111t87 -46q40 0 66 36.5t26 90.5q0 51 -23.5 92.5t-56.5 72t-66 62.5t-56.5 78.5t-23.5 104.5q0 73 37 121.5t102 48.5q64 0 102 -46q27 0 27 36h10v-150h-10q0 60 -34 103.5t-80 43.5q-40 0 -61 -31.5t-21 -85.5q0 -51 23.5 -93.5t56.5 -73
t66 -62t56.5 -78t23.5 -103.5q0 -77 -40.5 -128.5t-108.5 -51.5q-77 0 -118 60q-21 -8 -21 -50h-10z" />
    <glyph glyph-name="T" unicode="T" horiz-adv-x="392" 
d="M16 700h360v-140h-10q0 54 -19 92t-46 38h-65v-680h40v-10h-160v10h40v680h-65q-27 0 -46 -38t-19 -92h-10v140z" />
    <glyph glyph-name="U" unicode="U" horiz-adv-x="405" 
d="M342 660v-510q0 -66 -35 -113t-85 -47q-69 0 -114.5 46.5t-45.5 113.5v540h-40v10h160v-10h-40v-540q0 -64 21.5 -107t58.5 -43q46 0 78 44t32 106v540h-40v10h95v-10q-45 0 -45 -30z" />
    <glyph glyph-name="V" unicode="V" horiz-adv-x="400" 
d="M237 167l111 523h-40v10h98v-10q-48 0 -56 -38l-140 -662h-16l-154 700h-40v10h163v-10h-41z" />
    <glyph glyph-name="W" unicode="W" horiz-adv-x="560" 
d="M397 167l111 523h-40v10h98v-10q-48 0 -56 -38l-140 -662h-16l-74 333l-70 -333h-16l-154 700h-40v10h406v-10q-48 0 -56 -38l-30 -139zM237 167l38 180l-75 343h-78zM348 690h-66l33 -153z" />
    <glyph glyph-name="X" unicode="X" horiz-adv-x="381" 
d="M268 12l-100 289l-112 -291h38v-10h-98v10q50 0 64 37l103 269l-127 372h-40v12h164v-12h-40l90 -263l103 265h-38v10h98v-10q-50 0 -64 -37l-94 -242l137 -399h41v-12h-164v12h39z" />
    <glyph glyph-name="Y" unicode="Y" horiz-adv-x="389" 
d="M114 10h40v304l-107 376h-40v10h160v-10h-40l102 -360l108 360h-39v10h98v-10q-49 0 -60 -37l-102 -340v-303h40v-10h-160v10z" />
    <glyph glyph-name="Z" unicode="Z" horiz-adv-x="348" 
d="M316 0h-294l217 690h-132q-27 0 -46 -38t-19 -92h-10v140h294l-217 -690h132q27 0 46 38t19 92h10v-140z" />
    <glyph glyph-name="bracketleft" unicode="[" horiz-adv-x="202" 
d="M180 -116v-10h-130v886h130v-10h-50v-866h50z" />
    <glyph glyph-name="backslash" unicode="\" horiz-adv-x="246" 
d="M174 -155l-151 855h50l151 -855h-50z" />
    <glyph glyph-name="bracketright" unicode="]" horiz-adv-x="202" 
d="M22 -126v10h50v866h-50v10h130v-886h-130z" />
    <glyph glyph-name="asciicircum" unicode="^" horiz-adv-x="420" 
d="M183 700h54l155 -272h-54l-128 226l-128 -226h-54z" />
    <glyph glyph-name="underscore" unicode="_" horiz-adv-x="300" 
d="M25 -50v30h250v-30h-250z" />
    <glyph glyph-name="grave" unicode="`" horiz-adv-x="224" 
d="M174 543h-10l-114 157h91z" />
    <glyph glyph-name="a" unicode="a" horiz-adv-x="343" 
d="M46 420q0 35 32.5 60t77.5 25q55 0 92.5 -33.5t37.5 -101.5v-310q0 -14 6 -24t14 -10t14 10t6 24h10q0 -27 -19 -46t-46 -19q-21 0 -38 12t-24 31q-18 -43 -70 -43q-45 0 -79 30.5t-34 74.5v34q0 25 18 51t36 40l18 14l108 73v98q0 85 -50 85q-46 0 -69 -30q21 0 35 -13
t14 -32t-13 -32t-32 -13t-32 13t-13 32zM206 61v237l-72 -50q-28 -19 -28 -114v-74q0 -21 9 -38t31 -17q20 0 39 16t21 40z" />
    <glyph glyph-name="b" unicode="b" horiz-adv-x="358" 
d="M137 430v-360q0 -27 19 -46t41 -19q17 0 28.5 13.5t11.5 36.5v390q0 23 -11.5 36.5t-28.5 13.5q-22 0 -41 -19t-19 -46zM137 32v-32h-120v10h40v680h-40v10h120v-232q22 37 70 37q44 0 77 -28.5t33 -76.5v-300q0 -48 -33 -76.5t-77 -28.5q-48 0 -70 37z" />
    <glyph glyph-name="c" unicode="c" horiz-adv-x="308" 
d="M190 420q0 19 14 32t35 13q-19 30 -59 30q-26 0 -43 -21.5t-17 -63.5v-320q0 -42 17 -63.5t43 -21.5q35 0 62.5 23.5t27.5 71.5v33h10v-33q0 -49 -28.5 -77t-71.5 -28q-58 0 -99 32t-41 103v240q0 71 41 103t99 32q40 0 70 -25t30 -60q0 -19 -13 -32t-32 -13t-32 13
t-13 32z" />
    <glyph glyph-name="d" unicode="d" horiz-adv-x="358" 
d="M221 70v360q0 27 -19 46t-41 19q-17 0 -28.5 -13.5t-11.5 -36.5v-390q0 -23 11.5 -36.5t28.5 -13.5q22 0 41 19t19 46zM221 0v32q-22 -37 -70 -37q-44 0 -77 28.5t-33 76.5v300q0 48 33 76.5t77 28.5q48 0 70 -37v222h-40v10h120v-690h40v-10h-120z" />
    <glyph glyph-name="e" unicode="e" horiz-adv-x="334" 
d="M120 254v-164q0 -42 17 -63.5t43 -21.5q37 0 68.5 30t31.5 95v23h10v-23q0 -66 -32.5 -100.5t-87.5 -34.5q-54 0 -92 34t-38 101v240q0 67 38 101t92 34t92 -34t38 -101v-116h-180zM120 370v-106h100v106q0 125 -50 125t-50 -125z" />
    <glyph glyph-name="f" unicode="f" horiz-adv-x="235" 
d="M202 620q0 19 14 32t35 13q-19 30 -59 30q-50 0 -50 -85v-110h80v-10h-80v-480h40v-10h-160v10h40v480h-40v10h40v70q0 71 37 103t93 32q41 0 70.5 -25t29.5 -60q0 -19 -13 -32t-32 -13t-32 13t-13 32z" />
    <glyph glyph-name="g" unicode="g" horiz-adv-x="375" 
d="M223 310v60q0 68 -12 96.5t-38 28.5t-38 -28.5t-12 -96.5v-60q0 -68 12 -96.5t38 -28.5t38 28.5t12 96.5zM263 -45v130h-130q-35 0 -62.5 13.5t-27.5 36.5q0 20 27.5 33t60.5 16q-88 37 -88 126v60q0 70 37 102.5t93 32.5q62 0 93 -31q26 31 66 31q13 0 21.5 -8.5
t8.5 -21.5t-8.5 -21.5t-21.5 -8.5t-21.5 9.5t-8.5 26.5q-13 -5 -27 -17q28 -36 28 -94v-60q0 -71 -36.5 -103t-93.5 -32h-20q-11 0 -20.5 -9.5t-9.5 -30.5t9.5 -30.5t20.5 -9.5h190v-120q0 -60 -46 -95t-114 -35q-66 0 -113 32t-47 78t47 78t113 32v-10q-35 0 -57.5 -28
t-22.5 -72t22.5 -72t57.5 -28t57.5 28t22.5 72z" />
    <glyph glyph-name="h" unicode="h" horiz-adv-x="372" 
d="M237 10v435q0 23 -11.5 36.5t-28.5 13.5q-22 0 -41 -19t-19 -46v-420h40v-10h-160v10h40v680h-40v10h120v-232q22 37 70 37q44 0 77 -28.5t33 -76.5v-390h40v-10h-160v10h40z" />
    <glyph glyph-name="i" unicode="i" horiz-adv-x="203" 
d="M24 10v-10h160v10h-40v490h-120v-10h40v-480h-40zM54 620q0 21 14.5 35.5t35.5 14.5t35.5 -14.5t14.5 -35.5t-14.5 -35.5t-35.5 -14.5t-35.5 14.5t-14.5 35.5z" />
    <glyph glyph-name="j" unicode="j" horiz-adv-x="199" 
d="M5 -70q0 -19 -14 -32t-35 -13q20 -30 59 -30q50 0 50 85v550h-40v10h120v-520q0 -71 -37 -103t-93 -32q-41 0 -70.5 25t-29.5 60q0 19 13 32t32 13t32 -13t13 -32zM55 620q0 21 14.5 35.5t35.5 14.5t35.5 -14.5t14.5 -35.5t-14.5 -35.5t-35.5 -14.5t-35.5 14.5
t-14.5 35.5z" />
    <glyph glyph-name="k" unicode="k" horiz-adv-x="355" 
d="M208 0v10h37l-87 291l-21 -28v-263h40v-10h-160v10h40v680h-40v10h120v-410l148 200h-33v10h95v-10q-49 0 -72 -31l-60 -81l109 -368h39v-10h-155z" />
    <glyph glyph-name="l" unicode="l" horiz-adv-x="198" 
d="M19 700h120v-690h40v-10h-160v10h40v680h-40v10z" />
    <glyph glyph-name="m" unicode="m" horiz-adv-x="557" 
d="M142 417v-407h40v-10h-160v10h40v480h-40v10h120v-47q11 19 36.5 35.5t53.5 16.5q69 0 85 -61q13 26 40 43.5t55 17.5q90 0 90 -105v-390h40v-10h-160v10h40v435q0 44 -30 44q-22 0 -46 -23.5t-24 -48.5v-407h40v-10h-160v10h40v435q0 44 -30 44q-22 0 -46 -23.5
t-24 -48.5z" />
    <glyph glyph-name="n" unicode="n" horiz-adv-x="377" 
d="M142 417v-407h40v-10h-160v10h40v480h-40v10h120v-47q11 19 36.5 35.5t53.5 16.5q90 0 90 -105v-390h40v-10h-160v10h40v435q0 44 -30 44q-22 0 -46 -23.5t-24 -48.5z" />
    <glyph glyph-name="o" unicode="o" horiz-adv-x="340" 
d="M40 130v240q0 67 38 101t92 34t92 -34t38 -101v-240q0 -67 -38 -101t-92 -34t-92 34t-38 101zM220 130v240q0 125 -50 125t-50 -125v-240q0 -125 50 -125t50 125z" />
    <glyph glyph-name="p" unicode="p" horiz-adv-x="358" 
d="M137 430v-360q0 -27 19 -46t41 -19q17 0 28.5 13.5t11.5 36.5v390q0 23 -11.5 36.5t-28.5 13.5q-22 0 -41 -19t-19 -46zM137 500v-32q22 37 70 37q44 0 77 -28.5t33 -76.5v-300q0 -48 -33 -76.5t-77 -28.5q-48 0 -70 37v-177h40v-10h-160v10h40v635h-40v10h120z" />
    <glyph glyph-name="q" unicode="q" horiz-adv-x="358" 
d="M221 70v360q0 27 -19 46t-41 19q-17 0 -28.5 -13.5t-11.5 -36.5v-390q0 -23 11.5 -36.5t28.5 -13.5q22 0 41 19t19 46zM221 468v32h120v-10h-40v-635h40v-10h-160v10h40v177q-22 -37 -70 -37q-44 0 -77 28.5t-33 76.5v300q0 48 33 76.5t77 28.5q48 0 70 -37z" />
    <glyph glyph-name="r" unicode="r" horiz-adv-x="289" 
d="M192 440q0 18 12.5 31t30.5 14q-11 10 -33 10q-25 0 -42.5 -18t-17.5 -47v-420h40v-10h-160v10h40v480h-40v10h120v-31q20 36 69 36q29 0 50 -18t21 -47q0 -19 -13 -32t-32 -13t-32 13t-13 32z" />
    <glyph glyph-name="s" unicode="s" horiz-adv-x="308" 
d="M156 -5q-52 0 -89.5 28t-37.5 67q0 19 13.5 32t31.5 13q19 0 32 -13t13 -32t-14 -32t-35 -13q27 -40 80 -40q35 0 59.5 26.5t24.5 68.5q0 33 -20.5 59t-50 45t-59 40.5t-50 56t-20.5 79.5q0 52 35 88.5t85 36.5q47 0 78.5 -24.5t31.5 -60.5q0 -19 -13.5 -32t-31.5 -13
q-19 0 -32 13t-13 32t14 32t35 13q-18 30 -63 30q-32 0 -54 -23.5t-22 -61.5q0 -33 20.5 -59t50 -45t59 -40.5t50 -56t20.5 -79.5q0 -56 -37.5 -95.5t-90.5 -39.5z" />
    <glyph glyph-name="t" unicode="t" horiz-adv-x="207" 
d="M179 60h10q0 -27 -19 -46t-46 -19t-46 19t-19 46v430h-50v10h50v67l80 53v-120h60v-10h-60v-430q0 -14 6 -24t14 -10t14 10t6 24z" />
    <glyph glyph-name="u" unicode="u" horiz-adv-x="372" 
d="M235 83v407h-40v10h120v-490h40v-10h-120v47q-11 -19 -36.5 -35.5t-53.5 -16.5q-90 0 -90 105v390h-40v10h120v-445q0 -44 30 -44q22 0 46 23.5t24 48.5z" />
    <glyph glyph-name="v" unicode="v" horiz-adv-x="329" 
d="M0 490v10h160v-10h-41l81 -338l77 338h-39v10h97v-10q-47 0 -56 -38l-105 -457h-16l-118 495h-40z" />
    <glyph glyph-name="w" unicode="w" horiz-adv-x="487" 
d="M0 490v10h318v-10h-41l81 -338l77 338h-39v10h97v-10q-47 0 -56 -38l-105 -457h-16l-73 303l-69 -303h-16l-118 495h-40zM119 490l81 -338l38 168l-40 170h-79z" />
    <glyph glyph-name="x" unicode="x" horiz-adv-x="332" 
d="M112 490l74 -188l78 188h-38v10h98v-10q-49 0 -63 -34l-70 -168l110 -278h42v-10h-165v10h39l-76 204l-84 -204h38v-10h-98v10q49 0 63 34l76 184l-98 262h-41v10h155v-10h-40z" />
    <glyph glyph-name="y" unicode="y" horiz-adv-x="329" 
d="M1 490v10h160v-10h-41l81 -338l77 338h-39v10h97v-10q-47 0 -56 -38l-128 -556q-13 -51 -50 -51q-19 0 -32 13t-13 32t13 32t32 13q30 0 42 -29l18 77l-121 507h-40z" />
    <glyph glyph-name="z" unicode="z" horiz-adv-x="323" 
d="M24 10l186 480h-101q-27 0 -46 -38t-19 -92h-10v140h260v-10l-186 -480h111q27 0 46 38t19 92h10v-140h-270v10z" />
    <glyph glyph-name="braceleft" unicode="{" horiz-adv-x="264" 
d="M168 162v-128q0 -62 26.5 -106t63.5 -44v-10q-70 0 -120 47t-50 113v128q0 61 -26.5 105.5t-63.5 44.5v10q37 0 63.5 44t26.5 106v128q0 66 50 113t120 47v-10q-37 0 -63.5 -44t-26.5 -106v-128q0 -55 -36 -98t-91 -57q55 -14 91 -57t36 -98z" />
    <glyph glyph-name="bar" unicode="|" horiz-adv-x="150" 
d="M50 -155v855h50v-855h-50z" />
    <glyph glyph-name="braceright" unicode="}" horiz-adv-x="264" 
d="M96 34v128q0 55 36 98t91 57q-55 14 -91 57t-36 98v128q0 62 -26.5 106t-63.5 44v10q70 0 120 -47t50 -113v-128q0 -62 26.5 -106t63.5 -44v-10q-37 0 -63.5 -44.5t-26.5 -105.5v-128q0 -66 -50 -113t-120 -47v10q37 0 63.5 44t26.5 106z" />
    <glyph glyph-name="asciitilde" unicode="~" horiz-adv-x="612" 
d="M366 308l-139 51q-58 21 -108.5 11t-63.5 -45l-9 4q24 66 85 96.5t123 8.5l139 -51q58 -21 108.5 -11t63.5 45l9 -4q-24 -66 -85 -96.5t-123 -8.5z" />
    <glyph glyph-name="exclamdown" unicode="&#xa1;" horiz-adv-x="176" 
d="M38 590q0 21 14.5 35.5t35.5 14.5t35.5 -14.5t14.5 -35.5t-14.5 -35.5t-35.5 -14.5t-35.5 14.5t-14.5 35.5zM138 -10q0 -34 -14 -52t-36 -18t-36 18t-14 52q0 19 22.5 191.5t22.5 318.5h10q0 -146 22.5 -318.5t22.5 -191.5z" />
    <glyph glyph-name="cent" unicode="&#xa2;" horiz-adv-x="315" 
d="M192 420q0 19 14 32t35 13q-20 30 -59 30h-5v-490h5q35 0 62.5 23.5t27.5 71.5v33h10v-33q0 -49 -28.5 -77t-71.5 -28h-5v-80h-10v81q-53 3 -89 35.5t-36 98.5v240q0 66 36 98.5t89 35.5v81h10v-80h5q40 0 70 -25t30 -60q0 -19 -13 -32t-32 -13t-32 13t-13 32zM122 90
q0 -71 45 -83v486q-45 -12 -45 -83v-320z" />
    <glyph glyph-name="sterling" unicode="&#xa3;" horiz-adv-x="413" 
d="M28 0v80q41 0 68 38t27 102v146h-95v10h95v209q0 71 37 103t93 32q41 0 70.5 -25t29.5 -60q0 -19 -13 -32t-32 -13t-32 13t-13 32t14 32t35 13q-20 30 -59 30q-50 0 -50 -85v-249h165v-10h-165v-146q0 -53 -29.5 -89t-78.5 -51h273v40h10v-120h-350z" />
    <glyph glyph-name="yen" unicode="&#xa5;" horiz-adv-x="434" 
d="M47 284v30h125l-107 376h-40v10h157v-10h-37l102 -360l108 360h-37v10h96v-10q-49 0 -60 -37l-102 -339h125v-30h-125v-90h125v-30h-125v-154h40v-10h-160v10h40v154h-125v30h125v90h-125z" />
    <glyph glyph-name="brokenbar" unicode="&#xa6;" horiz-adv-x="160" 
d="M55 360v340h50v-340h-50zM55 -155v340h50v-340h-50z" />
    <glyph glyph-name="section" unicode="&#xa7;" horiz-adv-x="404" 
d="M206 -155q-52 0 -89.5 28t-37.5 67q0 19 13.5 32t31.5 13q19 0 32 -13t13 -32t-14 -32t-35 -13q27 -40 80 -40q35 0 59.5 31t24.5 74q0 37 -27 74t-66 70.5t-77.5 70t-65.5 85t-27 102.5q0 40 22 72t57 45q-29 50 -29 106q0 52 35 88.5t85 36.5q47 0 78.5 -24.5
t31.5 -60.5q0 -19 -13.5 -32t-31.5 -13q-19 0 -32 13t-13 32t14 32t35 13q-18 30 -63 30q-31 0 -53.5 -28t-22.5 -67q0 -37 27 -75t65.5 -72.5t77.5 -71t66 -84.5t27 -99q0 -41 -21.5 -75t-55.5 -49q27 -51 27 -99q0 -56 -37.5 -95.5t-90.5 -39.5zM334 183q0 35 -25.5 71.5
t-59 64.5t-75.5 68.5t-65 76.5q-38 -28 -38 -82q0 -35 25.5 -73t59 -67t75.5 -70.5t65 -76.5q38 31 38 88z" />
    <glyph glyph-name="dieresis" unicode="&#xa8;" horiz-adv-x="330" 
d="M50 618q0 19 13 32t32 13t32 -13t13 -32t-13 -32t-32 -13t-32 13t-13 32zM190 618q0 19 13 32t32 13t32 -13t13 -32t-13 -32t-32 -13t-32 13t-13 32z" />
    <glyph glyph-name="copyright" unicode="&#xa9;" horiz-adv-x="790" 
d="M65 350q0 -136 96.5 -233t233.5 -97t233.5 97t96.5 233t-96.5 233t-233.5 97t-233.5 -97t-96.5 -233zM505 275h10v-150h-10q0 36 -26 36q-36 -46 -94 -46q-62 0 -106 47t-44 113v150q0 66 44 113t106 47q59 0 94 -46q26 0 26 36h10v-150h-10q0 64 -32.5 107t-77.5 43
q-37 0 -58.5 -43t-21.5 -107v-150q0 -64 21.5 -107t58.5 -43q45 0 77.5 43t32.5 107zM25 350q0 153 108.5 261.5t261.5 108.5t261.5 -108.5t108.5 -261.5t-108.5 -261.5t-261.5 -108.5t-261.5 108.5t-108.5 261.5z" />
    <glyph glyph-name="ordfeminine" unicode="&#xaa;" horiz-adv-x="219" 
d="M44 668q0 17 16 29.5t39 12.5q27 0 46 -16.5t19 -50.5v-155q0 -17 10 -17t10 17h5q0 -14 -9.5 -23.5t-22.5 -9.5q-24 0 -31 22q-10 -22 -35 -22q-22 0 -39.5 15.5t-17.5 37.5v17q0 12 9 25t18 20l9 7l54 37v49q0 42 -25 42q-23 0 -34 -15q10 0 17 -6.5t7 -15.5
q0 -10 -6.5 -16.5t-15.5 -6.5q-10 0 -16.5 6.5t-6.5 16.5zM124 488v119l-36 -25q-14 -10 -14 -57v-37q0 -28 20 -28q11 0 20 8t10 20z" />
    <glyph glyph-name="guillemotleft" unicode="&#xab;" horiz-adv-x="373" 
d="M193 182h-80q0 61 -26.5 105.5t-63.5 44.5v10q37 0 63.5 44t26.5 106h80q0 -55 -36 -98t-91 -57q55 -14 91 -57t36 -98zM330 182h-80q0 61 -26.5 105.5t-63.5 44.5v10q37 0 63.5 44t26.5 106h80q0 -55 -36 -98t-91 -57q55 -14 91 -57t36 -98z" />
    <glyph glyph-name="logicalnot" unicode="&#xac;" horiz-adv-x="538" 
d="M48 300v50h440v-190h-50v140h-390z" />
    <glyph glyph-name="registered" unicode="&#xae;" horiz-adv-x="790" 
d="M341 339v-204h40v-10h-160v10h40v430h-40v10h182q57 0 102.5 -30t45.5 -88q0 -40 -23.5 -71.5t-60.5 -42.5l70 -208h40v-10h-160v10h37l-69 204h-44zM341 565v-216h27q43 0 73 31.5t30 76.5t-31.5 76.5t-76.5 31.5h-22zM65 350q0 -136 96.5 -233t233.5 -97t233.5 97
t96.5 233t-96.5 233t-233.5 97t-233.5 -97t-96.5 -233zM25 350q0 153 108.5 261.5t261.5 108.5t261.5 -108.5t108.5 -261.5t-108.5 -261.5t-261.5 -108.5t-261.5 108.5t-108.5 261.5z" />
    <glyph glyph-name="macron" unicode="&#xaf;" horiz-adv-x="306" 
d="M50 558v40h206v-40h-206z" />
    <glyph glyph-name="degree" unicode="&#xb0;" horiz-adv-x="254" 
d="M27 610q0 41 29.5 70.5t70.5 29.5t70.5 -29.5t29.5 -70.5t-29.5 -70.5t-70.5 -29.5t-70.5 29.5t-29.5 70.5zM57 610q0 -29 20.5 -49.5t49.5 -20.5t49.5 20.5t20.5 49.5t-20.5 49.5t-49.5 20.5t-49.5 -20.5t-20.5 -49.5z" />
    <glyph glyph-name="plusminus" unicode="&#xb1;" horiz-adv-x="434" 
d="M52 375v50h140v140h50v-140h140v-50h-140v-140h-50v140h-140zM52 135v50h330v-50h-330z" />
    <glyph glyph-name="twosuperior" unicode="&#xb2;" horiz-adv-x="277" 
d="M35 244v26q96 179 123 243t27 102t-15 59.5t-41 21.5q-51 0 -64 -42q16 0 25.5 -8.5t9.5 -21.5q0 -12 -8.5 -20.5t-20.5 -8.5t-20.5 8.5t-8.5 20.5q0 28 23 55t64 27q45 0 76.5 -27.5t31.5 -76.5q0 -23 -4.5 -42t-21 -47t-31 -49t-52 -73t-67.5 -95h159v29h10v-81h-195z
" />
    <glyph glyph-name="threesuperior" unicode="&#xb3;" horiz-adv-x="281" 
d="M39 625q0 28 23 54.5t65 26.5q44 0 75.5 -29t31.5 -75v-23q0 -34 -26 -62.5t-59 -38.5q35 -9 63.5 -37.5t28.5 -62.5v-36q0 -46 -34 -75t-80 -29q-42 0 -68 27t-26 54q0 12 9 20.5t20 8.5q12 0 20.5 -8.5t8.5 -20.5t-9 -20.5t-24 -8.5q6 -18 24 -30.5t45 -12.5t44.5 20
t17.5 49v62q0 38 -20 66.5t-45 28.5h-33v10h33q24 0 41 28t17 68v49q0 29 -14.5 48.5t-40.5 19.5q-53 0 -64 -42q16 0 25.5 -8.5t9.5 -20.5q0 -13 -8.5 -21.5t-20.5 -8.5q-13 0 -21.5 8.5t-8.5 21.5z" />
    <glyph glyph-name="acute" unicode="&#xb4;" horiz-adv-x="224" 
d="M60 543h-10l33 157h91z" />
    <glyph glyph-name="mu" unicode="&#xb5;" horiz-adv-x="384" 
d="M141 500v-445q0 -23 11.5 -36.5t28.5 -13.5q22 0 41 19t19 46v420h-40v10h120v-490h40v-10h-120v32q-22 -37 -70 -37q-34 0 -60 16v-26q0 -22 7.5 -50t7.5 -40q0 -23 -11.5 -36.5t-28.5 -13.5t-28.5 13.5t-11.5 36.5q0 12 7.5 40t7.5 50v505h-40v10h120z" />
    <glyph glyph-name="paragraph" unicode="&#xb6;" horiz-adv-x="484" 
d="M290 650v-805h-50v455h-60q-66 0 -113 47t-47 113v80q0 66 47 113t113 47h280v-50h-60v-805h-50v805h-60z" />
    <glyph glyph-name="periodcentered" unicode="&#xb7;" horiz-adv-x="188" 
d="M44 250q0 21 14.5 35.5t35.5 14.5t35.5 -14.5t14.5 -35.5t-14.5 -35.5t-35.5 -14.5t-35.5 14.5t-14.5 35.5z" />
    <glyph glyph-name="cedilla" unicode="&#xb8;" horiz-adv-x="185" 
d="M53 -100l17 100h10l-8 -50h10q22 0 37.5 -15t15.5 -37t-15.5 -37.5t-37.5 -15.5h-32l2 10h20q28 0 28 23q0 22 -28 22h-19z" />
    <glyph glyph-name="onesuperior" unicode="&#xb9;" horiz-adv-x="195" 
d="M36 678v10l75 12h16v-445h39v-10h-130v10h39v429z" />
    <glyph glyph-name="ordmasculine" unicode="&#xba;" horiz-adv-x="208" 
d="M39 523v120q0 33 19 50t46 17t46 -17t19 -50v-120q0 -34 -19 -51t-46 -17t-46 17t-19 51zM129 523v120q0 62 -25 62t-25 -62v-120q0 -63 25 -63t25 63z" />
    <glyph glyph-name="guillemotright" unicode="&#xbb;" horiz-adv-x="373" 
d="M260 182h-80q0 55 36 98t91 57q-55 14 -91 57t-36 98h80q0 -62 26.5 -106t63.5 -44v-10q-37 0 -63.5 -44.5t-26.5 -105.5zM123 182h-80q0 55 36 98t91 57q-55 14 -91 57t-36 98h80q0 -62 26.5 -106t63.5 -44v-10q-37 0 -63.5 -44.5t-26.5 -105.5z" />
    <glyph glyph-name="onequarter" unicode="&#xbc;" horiz-adv-x="601" 
d="M548 125h-11v-115h40v-10h-132v10h40v115h-140v10l179 327h13v-327h31v30h10v-73h-10q0 33 -20 33zM357 135h128v234zM179 0h-43l254 700h43zM26 678v10l75 12h16v-445h39v-10h-130v10h39v429z" />
    <glyph glyph-name="onehalf" unicode="&#xbd;" horiz-adv-x="608" 
d="M179 0h-43l254 700h43zM26 678v10l75 12h16v-445h39v-10h-130v10h39v429zM379 0v26q96 179 123 243t27 102t-15 59.5t-41 21.5q-51 0 -64 -42q16 0 25.5 -8.5t9.5 -21.5q0 -12 -8.5 -20.5t-20.5 -8.5t-20.5 8.5t-8.5 20.5q0 28 23 55t64 27q45 0 76.5 -27.5t31.5 -76.5
q0 -23 -4.5 -42t-21 -47t-31 -49t-52 -73t-67.5 -95h159v29h10v-81h-195z" />
    <glyph glyph-name="threequarters" unicode="&#xbe;" horiz-adv-x="648" 
d="M226 0h-43l254 700h43zM595 125h-11v-115h40v-10h-132v10h40v115h-140v10l179 327h13v-327h31v30h10v-73h-10q0 33 -20 33zM404 135h128v234zM31 625q0 28 23 54.5t65 26.5q44 0 75.5 -29t31.5 -75v-23q0 -34 -26 -62.5t-59 -38.5q35 -9 63.5 -37.5t28.5 -62.5v-36
q0 -46 -34 -75t-80 -29q-42 0 -68 27t-26 54q0 12 9 20.5t20 8.5q12 0 20.5 -8.5t8.5 -20.5t-9 -20.5t-24 -8.5q6 -18 24 -30.5t45 -12.5t44.5 20t17.5 49v62q0 38 -20 66.5t-45 28.5h-33v10h33q24 0 41 28t17 68v49q0 29 -14.5 48.5t-40.5 19.5q-53 0 -64 -42
q16 0 25.5 -8.5t9.5 -20.5q0 -13 -8.5 -21.5t-20.5 -8.5q-13 0 -21.5 8.5t-8.5 21.5z" />
    <glyph glyph-name="questiondown" unicode="&#xbf;" horiz-adv-x="346" 
d="M326 45q0 -44 -35 -84.5t-100 -40.5q-67 0 -116 45t-49 115v90q0 70 52.5 115t122.5 45v170h10v-180h-10q-41 0 -68 -32.5t-27 -77.5v-170q0 -46 23.5 -78t61.5 -32q79 0 99 70q-25 0 -39.5 13t-14.5 32t13 32t32 13t32 -13t13 -32zM256 590q0 -21 -14.5 -35.5
t-35.5 -14.5t-35.5 14.5t-14.5 35.5t14.5 35.5t35.5 14.5t35.5 -14.5t14.5 -35.5z" />
    <glyph glyph-name="Agrave" unicode="&#xc0;" horiz-adv-x="400" 
d="M-6 0v10q48 0 56 38l140 662h16l154 -700h40v-10h-162v10h40l-42 195h-143l-41 -195h38v-10h-96zM163 533l-68 -318h139zM238 743h-10l-114 157h91z" />
    <glyph glyph-name="Aacute" unicode="&#xc1;" horiz-adv-x="400" 
d="M-6 0v10q48 0 56 38l140 662h16l154 -700h40v-10h-162v10h40l-42 195h-143l-41 -195h38v-10h-96zM163 533l-68 -318h139zM165 743h-10l33 157h91z" />
    <glyph glyph-name="Acircumflex" unicode="&#xc2;" horiz-adv-x="400" 
d="M-6 0v10q48 0 56 38l140 662h16l154 -700h40v-10h-162v10h40l-42 195h-143l-41 -195h38v-10h-96zM163 533l-68 -318h139zM94 743h-10l83 157h61l83 -157h-10l-104 94z" />
    <glyph glyph-name="Atilde" unicode="&#xc3;" horiz-adv-x="400" 
d="M-6 0v10q48 0 56 38l140 662h16l154 -700h40v-10h-162v10h40l-42 195h-143l-41 -195h38v-10h-96zM163 533l-68 -318h139zM185 793q-47 28 -79.5 25t-32.5 -38h-10q0 58 45 83.5t102 -6.5q48 -28 80 -25t32 38h10q0 -58 -44.5 -83.5t-102.5 6.5z" />
    <glyph glyph-name="Adieresis" unicode="&#xc4;" horiz-adv-x="400" 
d="M-6 0v10q48 0 56 38l140 662h16l154 -700h40v-10h-162v10h40l-42 195h-143l-41 -195h38v-10h-96zM163 533l-68 -318h139zM82 818q0 19 13 32t32 13t32 -13t13 -32t-13 -32t-32 -13t-32 13t-13 32zM222 818q0 19 13 32t32 13t32 -13t13 -32t-13 -32t-32 -13t-32 13t-13 32
z" />
    <glyph glyph-name="Aring" unicode="&#xc5;" horiz-adv-x="400" 
d="M-6 0v10q48 0 56 38l140 662h16l154 -700h40v-10h-162v10h40l-42 195h-143l-41 -195h38v-10h-96zM163 533l-68 -318h139zM154 826q0 -18 12.5 -30.5t30.5 -12.5t30.5 12.5t12.5 30.5t-12.5 30.5t-30.5 12.5t-30.5 -12.5t-12.5 -30.5zM114 826q0 34 24 58.5t59 24.5
t59 -24.5t24 -58.5t-24 -58.5t-59 -24.5t-59 24.5t-24 58.5z" />
    <glyph glyph-name="AE" unicode="&#xc6;" horiz-adv-x="582" 
d="M50 48l236 642h-40v10h300v-140h-10q0 54 -19 92t-46 38h-105v-335h70q16 0 28 23.5t12 56.5h10v-170h-10q0 33 -12 56.5t-28 23.5h-70v-335h105q27 0 46 38t19 92h10v-140h-300v10h40v195h-167l-72 -195h38v-10h-96v10q47 0 61 38zM122 215h164v444z" />
    <glyph glyph-name="Ccedilla" unicode="&#xc7;" horiz-adv-x="361" 
d="M179 -100l15 90q-61 2 -103 48.5t-42 111.5v400q0 66 44 113t106 47q59 0 94 -46q26 0 26 36h10v-150h-10q0 64 -32.5 107t-77.5 43q-37 0 -58.5 -43t-21.5 -107v-400q0 -64 21.5 -107t58.5 -43q45 0 77.5 43t32.5 107h10v-150h-10q0 36 -26 36q-34 -43 -89 -46l-6 -40
h10q22 0 37.5 -15t15.5 -37t-15.5 -37.5t-37.5 -15.5h-32l2 10h20q28 0 28 23q0 22 -28 22h-19z" />
    <glyph glyph-name="Egrave" unicode="&#xc8;" horiz-adv-x="356" 
d="M320 700v-140h-10q0 54 -19 92t-46 38h-95v-335h60q16 0 28 23.5t12 56.5h10v-170h-10q0 33 -12 56.5t-28 23.5h-60v-335h95q27 0 46 38t19 92h10v-140h-290v10h40v680h-40v10h290zM227 743h-10l-114 157h91z" />
    <glyph glyph-name="Eacute" unicode="&#xc9;" horiz-adv-x="356" 
d="M320 700v-140h-10q0 54 -19 92t-46 38h-95v-335h60q16 0 28 23.5t12 56.5h10v-170h-10q0 33 -12 56.5t-28 23.5h-60v-335h95q27 0 46 38t19 92h10v-140h-290v10h40v680h-40v10h290zM143 743h-10l33 157h91z" />
    <glyph glyph-name="Ecircumflex" unicode="&#xca;" horiz-adv-x="356" 
d="M320 700v-140h-10q0 54 -19 92t-46 38h-95v-335h60q16 0 28 23.5t12 56.5h10v-170h-10q0 33 -12 56.5t-28 23.5h-60v-335h95q27 0 46 38t19 92h10v-140h-290v10h40v680h-40v10h290zM80 743h-10l83 157h61l83 -157h-10l-104 94z" />
    <glyph glyph-name="Edieresis" unicode="&#xcb;" horiz-adv-x="356" 
d="M320 700v-140h-10q0 54 -19 92t-46 38h-95v-335h60q16 0 28 23.5t12 56.5h10v-170h-10q0 33 -12 56.5t-28 23.5h-60v-335h95q27 0 46 38t19 92h10v-140h-290v10h40v680h-40v10h290zM65 818q0 19 13 32t32 13t32 -13t13 -32t-13 -32t-32 -13t-32 13t-13 32zM205 818
q0 19 13 32t32 13t32 -13t13 -32t-13 -32t-32 -13t-32 13t-13 32z" />
    <glyph glyph-name="Igrave" unicode="&#xcc;" horiz-adv-x="220" 
d="M147 743h-10l-114 157h91zM30 700h160v-10h-40v-680h40v-10h-160v10h40v680h-40v10z" />
    <glyph glyph-name="Iacute" unicode="&#xcd;" horiz-adv-x="220" 
d="M30 700h160v-10h-40v-680h40v-10h-160v10h40v680h-40v10zM83 743h-10l33 157h91z" />
    <glyph glyph-name="Icircumflex" unicode="&#xce;" horiz-adv-x="220" 
d="M30 700h160v-10h-40v-680h40v-10h-160v10h40v680h-40v10zM7 743h-10l83 157h61l83 -157h-10l-104 94z" />
    <glyph glyph-name="Idieresis" unicode="&#xcf;" horiz-adv-x="220" 
d="M30 700h160v-10h-40v-680h40v-10h-160v10h40v680h-40v10zM-5 818q0 19 13 32t32 13t32 -13t13 -32t-13 -32t-32 -13t-32 13t-13 32zM135 818q0 19 13 32t32 13t32 -13t13 -32t-13 -32t-32 -13t-32 13t-13 32z" />
    <glyph glyph-name="Eth" unicode="&#xd0;" 
d="M30 345v10h40v335h-40v10h160q79 0 129.5 -46.5t50.5 -113.5v-380q0 -67 -50.5 -113.5t-129.5 -46.5h-160v10h40v335h-40zM290 160v380q0 62 -29.5 106t-70.5 44h-40v-335h90v-10h-90v-335h40q41 0 70.5 44t29.5 106z" />
    <glyph glyph-name="Ntilde" unicode="&#xd1;" horiz-adv-x="394" 
d="M25 700h107l186 -498v488h-40v10h95v-10q-45 0 -45 -30v-660h-16l-232 623v-613h40v-10h-95v10q45 0 45 30v620q0 30 -45 30v10zM191 793q-47 28 -79.5 25t-32.5 -38h-10q0 58 45 83.5t102 -6.5q48 -28 80 -25t32 38h10q0 -58 -44.5 -83.5t-102.5 6.5z" />
    <glyph glyph-name="Ograve" unicode="&#xd2;" 
d="M256 743h-10l-114 157h91zM289 150v400q0 64 -21.5 107t-58.5 43t-58.5 -43t-21.5 -107v-400q0 -64 21.5 -107t58.5 -43t58.5 43t21.5 107zM49 150v400q0 67 45.5 113.5t114.5 46.5t114.5 -46.5t45.5 -113.5v-400q0 -67 -45.5 -113.5t-114.5 -46.5t-114.5 46.5
t-45.5 113.5z" />
    <glyph glyph-name="Oacute" unicode="&#xd3;" 
d="M289 150v400q0 64 -21.5 107t-58.5 43t-58.5 -43t-21.5 -107v-400q0 -64 21.5 -107t58.5 -43t58.5 43t21.5 107zM49 150v400q0 67 45.5 113.5t114.5 46.5t114.5 -46.5t45.5 -113.5v-400q0 -67 -45.5 -113.5t-114.5 -46.5t-114.5 46.5t-45.5 113.5zM172 743h-10l33 157h91
z" />
    <glyph glyph-name="Ocircumflex" unicode="&#xd4;" 
d="M289 150v400q0 64 -21.5 107t-58.5 43t-58.5 -43t-21.5 -107v-400q0 -64 21.5 -107t58.5 -43t58.5 43t21.5 107zM49 150v400q0 67 45.5 113.5t114.5 46.5t114.5 -46.5t45.5 -113.5v-400q0 -67 -45.5 -113.5t-114.5 -46.5t-114.5 46.5t-45.5 113.5zM106 743h-10l83 157h61
l83 -157h-10l-104 94z" />
    <glyph glyph-name="Otilde" unicode="&#xd5;" 
d="M289 150v400q0 64 -21.5 107t-58.5 43t-58.5 -43t-21.5 -107v-400q0 -64 21.5 -107t58.5 -43t58.5 43t21.5 107zM49 150v400q0 67 45.5 113.5t114.5 46.5t114.5 -46.5t45.5 -113.5v-400q0 -67 -45.5 -113.5t-114.5 -46.5t-114.5 46.5t-45.5 113.5zM197 793
q-47 28 -79.5 25t-32.5 -38h-10q0 58 45 83.5t102 -6.5q48 -28 80 -25t32 38h10q0 -58 -44.5 -83.5t-102.5 6.5z" />
    <glyph glyph-name="Odieresis" unicode="&#xd6;" 
d="M289 150v400q0 64 -21.5 107t-58.5 43t-58.5 -43t-21.5 -107v-400q0 -64 21.5 -107t58.5 -43t58.5 43t21.5 107zM49 150v400q0 67 45.5 113.5t114.5 46.5t114.5 -46.5t45.5 -113.5v-400q0 -67 -45.5 -113.5t-114.5 -46.5t-114.5 46.5t-45.5 113.5zM94 818q0 19 13 32
t32 13t32 -13t13 -32t-13 -32t-32 -13t-32 13t-13 32zM234 818q0 19 13 32t32 13t32 -13t13 -32t-13 -32t-32 -13t-32 13t-13 32z" />
    <glyph glyph-name="multiply" unicode="&#xd7;" horiz-adv-x="410" 
d="M372 472l-132 -132l132 -132l-35 -35l-133 131l-131 -131l-35 35l131 131l-132 133l35 35l133 -132l132 132z" />
    <glyph glyph-name="Oslash" unicode="&#xd8;" 
d="M43 4l29 62q-23 37 -23 84v400q0 67 45.5 113.5t114.5 46.5q84 0 131 -67l27 57l9 -4l-30 -63q23 -39 23 -83v-400q0 -67 -45.5 -113.5t-114.5 -46.5q-85 0 -131 66l-26 -56zM129 550v-362l160 344v18q0 64 -21.5 107t-58.5 43t-58.5 -43t-21.5 -107zM289 150v359
l-160 -344v-15q0 -64 21.5 -107t58.5 -43t58.5 43t21.5 107z" />
    <glyph glyph-name="Ugrave" unicode="&#xd9;" horiz-adv-x="405" 
d="M342 660v-510q0 -66 -35 -113t-85 -47q-69 0 -114.5 46.5t-45.5 113.5v540h-40v10h160v-10h-40v-540q0 -64 21.5 -107t58.5 -43q46 0 78 44t32 106v540h-40v10h95v-10q-45 0 -45 -30zM236 743h-10l-114 157h91z" />
    <glyph glyph-name="Uacute" unicode="&#xda;" horiz-adv-x="405" 
d="M342 660v-510q0 -66 -35 -113t-85 -47q-69 0 -114.5 46.5t-45.5 113.5v540h-40v10h160v-10h-40v-540q0 -64 21.5 -107t58.5 -43q46 0 78 44t32 106v540h-40v10h95v-10q-45 0 -45 -30zM162 743h-10l33 157h91z" />
    <glyph glyph-name="Ucircumflex" unicode="&#xdb;" horiz-adv-x="405" 
d="M342 660v-510q0 -66 -35 -113t-85 -47q-69 0 -114.5 46.5t-45.5 113.5v540h-40v10h160v-10h-40v-540q0 -64 21.5 -107t58.5 -43q46 0 78 44t32 106v540h-40v10h95v-10q-45 0 -45 -30zM106 743h-10l83 157h61l83 -157h-10l-104 94z" />
    <glyph glyph-name="Udieresis" unicode="&#xdc;" horiz-adv-x="405" 
d="M342 660v-510q0 -66 -35 -113t-85 -47q-69 0 -114.5 46.5t-45.5 113.5v540h-40v10h160v-10h-40v-540q0 -64 21.5 -107t58.5 -43q46 0 78 44t32 106v540h-40v10h95v-10q-45 0 -45 -30zM94 818q0 19 13 32t32 13t32 -13t13 -32t-13 -32t-32 -13t-32 13t-13 32zM234 818
q0 19 13 32t32 13t32 -13t13 -32t-13 -32t-32 -13t-32 13t-13 32z" />
    <glyph glyph-name="Yacute" unicode="&#xdd;" horiz-adv-x="389" 
d="M114 10h40v304l-107 376h-40v10h160v-10h-40l102 -360l108 360h-39v10h98v-10q-49 0 -60 -37l-102 -340v-303h40v-10h-160v10zM154 743h-10l33 157h91z" />
    <glyph glyph-name="Thorn" unicode="&#xde;" horiz-adv-x="396" 
d="M70 690h-40v10h160v-10h-40v-139h40q79 0 129.5 -46.5t50.5 -113.5v-80q0 -67 -50.5 -113.5t-129.5 -46.5h-40v-141h40v-10h-160v10h40v680zM190 541h-40v-380h40q41 0 70.5 44t29.5 106v80q0 62 -29.5 106t-70.5 44z" />
    <glyph glyph-name="germandbls" unicode="&#xdf;" horiz-adv-x="454" 
d="M227 700q-37 0 -63.5 -29.5t-26.5 -70.5v-600h-120v10h40v540q0 66 50 113t120 47q65 0 111.5 -34t46.5 -83q0 -34 -14 -58t-34.5 -37t-41 -25t-34.5 -30t-14 -43q0 -30 19.5 -53.5t47.5 -41.5t56 -38.5t47.5 -55.5t19.5 -81q0 -58 -33 -96.5t-87 -38.5q-62 0 -98 47
q-12 -9 -12 -42h-10v120h10q0 -46 30.5 -79.5t69.5 -33.5q34 0 57 30t23 73q0 30 -19.5 53.5t-47.5 41.5t-56 38.5t-47.5 55.5t-19.5 81q0 33 13 56t31.5 36.5t36.5 27.5t31 37t13 56q0 44 -28 75.5t-67 31.5z" />
    <glyph glyph-name="agrave" unicode="&#xe0;" horiz-adv-x="343" 
d="M46 420q0 35 32.5 60t77.5 25q55 0 92.5 -33.5t37.5 -101.5v-310q0 -14 6 -24t14 -10t14 10t6 24h10q0 -27 -19 -46t-46 -19q-21 0 -38 12t-24 31q-18 -43 -70 -43q-45 0 -79 30.5t-34 74.5v34q0 25 18 51t36 40l18 14l108 73v98q0 85 -50 85q-46 0 -69 -30q21 0 35 -13
t14 -32t-13 -32t-32 -13t-32 13t-13 32zM206 61v237l-72 -50q-28 -19 -28 -114v-74q0 -21 9 -38t31 -17q20 0 39 16t21 40zM210 543h-10l-114 157h91z" />
    <glyph glyph-name="aacute" unicode="&#xe1;" horiz-adv-x="343" 
d="M46 420q0 35 32.5 60t77.5 25q55 0 92.5 -33.5t37.5 -101.5v-310q0 -14 6 -24t14 -10t14 10t6 24h10q0 -27 -19 -46t-46 -19q-21 0 -38 12t-24 31q-18 -43 -70 -43q-45 0 -79 30.5t-34 74.5v34q0 25 18 51t36 40l18 14l108 73v98q0 85 -50 85q-46 0 -69 -30q21 0 35 -13
t14 -32t-13 -32t-32 -13t-32 13t-13 32zM206 61v237l-72 -50q-28 -19 -28 -114v-74q0 -21 9 -38t31 -17q20 0 39 16t21 40zM126 543h-10l33 157h91z" />
    <glyph glyph-name="acircumflex" unicode="&#xe2;" horiz-adv-x="343" 
d="M46 420q0 35 32.5 60t77.5 25q55 0 92.5 -33.5t37.5 -101.5v-310q0 -14 6 -24t14 -10t14 10t6 24h10q0 -27 -19 -46t-46 -19q-21 0 -38 12t-24 31q-18 -43 -70 -43q-45 0 -79 30.5t-34 74.5v34q0 25 18 51t36 40l18 14l108 73v98q0 85 -50 85q-46 0 -69 -30q21 0 35 -13
t14 -32t-13 -32t-32 -13t-32 13t-13 32zM206 61v237l-72 -50q-28 -19 -28 -114v-74q0 -21 9 -38t31 -17q20 0 39 16t21 40zM67 543h-10l83 157h61l83 -157h-10l-104 94z" />
    <glyph glyph-name="atilde" unicode="&#xe3;" horiz-adv-x="343" 
d="M46 420q0 35 32.5 60t77.5 25q55 0 92.5 -33.5t37.5 -101.5v-310q0 -14 6 -24t14 -10t14 10t6 24h10q0 -27 -19 -46t-46 -19q-21 0 -38 12t-24 31q-18 -43 -70 -43q-45 0 -79 30.5t-34 74.5v34q0 25 18 51t36 40l18 14l108 73v98q0 85 -50 85q-46 0 -69 -30q21 0 35 -13
t14 -32t-13 -32t-32 -13t-32 13t-13 32zM206 61v237l-72 -50q-28 -19 -28 -114v-74q0 -21 9 -38t31 -17q20 0 39 16t21 40zM159 593q-47 28 -79.5 25t-32.5 -38h-10q0 58 45 83.5t102 -6.5q48 -28 80 -25t32 38h10q0 -58 -44.5 -83.5t-102.5 6.5z" />
    <glyph glyph-name="adieresis" unicode="&#xe4;" horiz-adv-x="343" 
d="M46 420q0 35 32.5 60t77.5 25q55 0 92.5 -33.5t37.5 -101.5v-310q0 -14 6 -24t14 -10t14 10t6 24h10q0 -27 -19 -46t-46 -19q-21 0 -38 12t-24 31q-18 -43 -70 -43q-45 0 -79 30.5t-34 74.5v34q0 25 18 51t36 40l18 14l108 73v98q0 85 -50 85q-46 0 -69 -30q21 0 35 -13
t14 -32t-13 -32t-32 -13t-32 13t-13 32zM206 61v237l-72 -50q-28 -19 -28 -114v-74q0 -21 9 -38t31 -17q20 0 39 16t21 40zM54 618q0 19 13 32t32 13t32 -13t13 -32t-13 -32t-32 -13t-32 13t-13 32zM194 618q0 19 13 32t32 13t32 -13t13 -32t-13 -32t-32 -13t-32 13t-13 32z
" />
    <glyph glyph-name="aring" unicode="&#xe5;" horiz-adv-x="343" 
d="M46 420q0 35 32.5 60t77.5 25q55 0 92.5 -33.5t37.5 -101.5v-310q0 -14 6 -24t14 -10t14 10t6 24h10q0 -27 -19 -46t-46 -19q-21 0 -38 12t-24 31q-18 -43 -70 -43q-45 0 -79 30.5t-34 74.5v34q0 25 18 51t36 40l18 14l108 73v98q0 85 -50 85q-46 0 -69 -30q21 0 35 -13
t14 -32t-13 -32t-32 -13t-32 13t-13 32zM206 61v237l-72 -50q-28 -19 -28 -114v-74q0 -21 9 -38t31 -17q20 0 39 16t21 40zM128 626q0 -18 12.5 -30.5t30.5 -12.5t30.5 12.5t12.5 30.5t-12.5 30.5t-30.5 12.5t-30.5 -12.5t-12.5 -30.5zM88 626q0 34 24 58.5t59 24.5
t59 -24.5t24 -58.5t-24 -58.5t-59 -24.5t-59 24.5t-24 58.5z" />
    <glyph glyph-name="ae" unicode="&#xe6;" horiz-adv-x="500" 
d="M286 254v-164q0 -42 17 -63.5t43 -21.5q37 0 68.5 30t31.5 95v23h10v-23q0 -66 -32 -100.5t-88 -34.5q-40 0 -72 18.5t-47 55.5q-2 -33 -22.5 -53.5t-55.5 -20.5q-45 0 -79 30.5t-34 74.5v34q0 25 18 51t36 40l18 14l108 73v98q0 85 -50 85q-46 0 -69 -30q21 0 35 -13
t14 -32t-13 -32t-32 -13t-32 13t-13 32q0 35 32.5 60t77.5 25q55 0 90 -32q35 32 90 32q54 0 92 -34t38 -101v-116h-180zM206 70v228l-72 -50q-28 -19 -28 -114v-74q0 -21 9 -38t31 -17q24 0 42 19t18 46zM286 370v-106h100v106q0 125 -50 125t-50 -125z" />
    <glyph glyph-name="ccedilla" unicode="&#xe7;" horiz-adv-x="307" 
d="M159 -100l16 95q-57 2 -96 34t-39 101v240q0 71 41 103t99 32q40 0 70 -25t30 -60q0 -19 -13 -32t-32 -13t-32 13t-13 32t14 32t35 13q-19 30 -59 30q-26 0 -43 -21.5t-17 -63.5v-320q0 -42 17 -63.5t43 -21.5q35 0 62.5 23.5t27.5 71.5v33h10v-33q0 -47 -27 -75t-68 -30
l-7 -45h10q22 0 37.5 -15t15.5 -37t-15.5 -37.5t-37.5 -15.5h-32l2 10h20q28 0 28 23q0 22 -28 22h-19z" />
    <glyph glyph-name="egrave" unicode="&#xe8;" horiz-adv-x="334" 
d="M120 254v-164q0 -42 17 -63.5t43 -21.5q37 0 68.5 30t31.5 95v23h10v-23q0 -66 -32.5 -100.5t-87.5 -34.5q-54 0 -92 34t-38 101v240q0 67 38 101t92 34t92 -34t38 -101v-116h-180zM120 370v-106h100v106q0 125 -50 125t-50 -125zM207 543h-10l-114 157h91z" />
    <glyph glyph-name="eacute" unicode="&#xe9;" horiz-adv-x="334" 
d="M120 254v-164q0 -42 17 -63.5t43 -21.5q37 0 68.5 30t31.5 95v23h10v-23q0 -66 -32.5 -100.5t-87.5 -34.5q-54 0 -92 34t-38 101v240q0 67 38 101t92 34t92 -34t38 -101v-116h-180zM120 370v-106h100v106q0 125 -50 125t-50 -125zM133 543h-10l33 157h91z" />
    <glyph glyph-name="ecircumflex" unicode="&#xea;" horiz-adv-x="334" 
d="M120 254v-164q0 -42 17 -63.5t43 -21.5q37 0 68.5 30t31.5 95v23h10v-23q0 -66 -32.5 -100.5t-87.5 -34.5q-54 0 -92 34t-38 101v240q0 67 38 101t92 34t92 -34t38 -101v-116h-180zM120 370v-106h100v106q0 125 -50 125t-50 -125zM67 543h-10l83 157h61l83 -157h-10
l-104 94z" />
    <glyph glyph-name="edieresis" unicode="&#xeb;" horiz-adv-x="334" 
d="M120 254v-164q0 -42 17 -63.5t43 -21.5q37 0 68.5 30t31.5 95v23h10v-23q0 -66 -32.5 -100.5t-87.5 -34.5q-54 0 -92 34t-38 101v240q0 67 38 101t92 34t92 -34t38 -101v-116h-180zM120 370v-106h100v106q0 125 -50 125t-50 -125zM55 618q0 19 13 32t32 13t32 -13t13 -32
t-13 -32t-32 -13t-32 13t-13 32zM195 618q0 19 13 32t32 13t32 -13t13 -32t-13 -32t-32 -13t-32 13t-13 32z" />
    <glyph glyph-name="igrave" unicode="&#xec;" horiz-adv-x="203" 
d="M144 543h-10l-114 157h91zM24 0v10h40v480h-40v10h120v-490h40v-10h-160z" />
    <glyph glyph-name="iacute" unicode="&#xed;" horiz-adv-x="203" 
d="M24 0v10h40v480h-40v10h120v-490h40v-10h-160zM74 543h-10l33 157h91z" />
    <glyph glyph-name="icircumflex" unicode="&#xee;" horiz-adv-x="203" 
d="M24 0v10h40v480h-40v10h120v-490h40v-10h-160zM1 543h-10l83 157h61l83 -157h-10l-104 94z" />
    <glyph glyph-name="idieresis" unicode="&#xef;" horiz-adv-x="203" 
d="M24 0v10h40v480h-40v10h120v-490h40v-10h-160zM-11 618q0 19 13 32t32 13t32 -13t13 -32t-13 -32t-32 -13t-32 13t-13 32zM129 618q0 19 13 32t32 13t32 -13t13 -32t-13 -32t-32 -13t-32 13t-13 32z" />
    <glyph glyph-name="eth" unicode="&#xf0;" horiz-adv-x="386" 
d="M107 546l84 64q-29 38 -61.5 59t-50.5 21v10q27 0 66 -17.5t76 -50.5l90 68l6 -8l-89 -67q121 -113 121 -316v-159q0 -65 -48.5 -112.5t-111.5 -47.5t-111.5 47.5t-48.5 112.5v120q0 66 43.5 113t106.5 47q29 0 53.5 -19t36.5 -49q0 142 -72 240l-84 -64zM269 110v200
q0 46 -26.5 78t-63.5 32q-35 0 -52.5 -35t-17.5 -75v-200q0 -37 22.5 -73.5t57.5 -36.5t57.5 36.5t22.5 73.5z" />
    <glyph glyph-name="ntilde" unicode="&#xf1;" horiz-adv-x="377" 
d="M142 417v-407h40v-10h-160v10h40v480h-40v10h120v-47q11 19 36.5 35.5t53.5 16.5q90 0 90 -105v-390h40v-10h-160v10h40v435q0 44 -30 44q-22 0 -46 -23.5t-24 -48.5zM180 593q-47 28 -79.5 25t-32.5 -38h-10q0 58 45 83.5t102 -6.5q48 -28 80 -25t32 38h10
q0 -58 -44.5 -83.5t-102.5 6.5z" />
    <glyph glyph-name="ograve" unicode="&#xf2;" horiz-adv-x="340" 
d="M40 130v240q0 67 38 101t92 34t92 -34t38 -101v-240q0 -67 -38 -101t-92 -34t-92 34t-38 101zM220 130v240q0 125 -50 125t-50 -125v-240q0 -125 50 -125t50 125zM207 543h-10l-114 157h91z" />
    <glyph glyph-name="oacute" unicode="&#xf3;" horiz-adv-x="340" 
d="M40 130v240q0 67 38 101t92 34t92 -34t38 -101v-240q0 -67 -38 -101t-92 -34t-92 34t-38 101zM220 130v240q0 125 -50 125t-50 -125v-240q0 -125 50 -125t50 125zM143 543h-10l33 157h91z" />
    <glyph glyph-name="ocircumflex" unicode="&#xf4;" horiz-adv-x="340" 
d="M40 130v240q0 67 38 101t92 34t92 -34t38 -101v-240q0 -67 -38 -101t-92 -34t-92 34t-38 101zM220 130v240q0 125 -50 125t-50 -125v-240q0 -125 50 -125t50 125zM67 543h-10l83 157h61l83 -157h-10l-104 94z" />
    <glyph glyph-name="otilde" unicode="&#xf5;" horiz-adv-x="340" 
d="M40 130v240q0 67 38 101t92 34t92 -34t38 -101v-240q0 -67 -38 -101t-92 -34t-92 34t-38 101zM220 130v240q0 125 -50 125t-50 -125v-240q0 -125 50 -125t50 125zM158 593q-47 28 -79.5 25t-32.5 -38h-10q0 58 45 83.5t102 -6.5q48 -28 80 -25t32 38h10
q0 -58 -44.5 -83.5t-102.5 6.5z" />
    <glyph glyph-name="odieresis" unicode="&#xf6;" horiz-adv-x="340" 
d="M40 130v240q0 67 38 101t92 34t92 -34t38 -101v-240q0 -67 -38 -101t-92 -34t-92 34t-38 101zM220 130v240q0 125 -50 125t-50 -125v-240q0 -125 50 -125t50 125zM55 618q0 19 13 32t32 13t32 -13t13 -32t-13 -32t-32 -13t-32 13t-13 32zM195 618q0 19 13 32t32 13
t32 -13t13 -32t-13 -32t-32 -13t-32 13t-13 32z" />
    <glyph glyph-name="divide" unicode="&#xf7;" horiz-adv-x="406" 
d="M38 325v50h330v-50h-330zM153 475q0 21 14.5 35.5t35.5 14.5t35.5 -14.5t14.5 -35.5t-14.5 -35.5t-35.5 -14.5t-35.5 14.5t-14.5 35.5zM153 225q0 21 14.5 35.5t35.5 14.5t35.5 -14.5t14.5 -35.5t-14.5 -35.5t-35.5 -14.5t-35.5 14.5t-14.5 35.5z" />
    <glyph glyph-name="oslash" unicode="&#xf8;" horiz-adv-x="346" 
d="M22 0l35 61q-14 28 -14 69v240q0 67 38 101t92 34q74 0 109 -56l33 56l9 -5l-36 -61q15 -29 15 -69v-240q0 -67 -38 -101t-92 -34q-75 0 -110 55l-32 -55zM123 370v-196l100 172v24q0 125 -50 125t-50 -125zM223 130v195l-100 -172v-23q0 -125 50 -125t50 125z" />
    <glyph glyph-name="ugrave" unicode="&#xf9;" horiz-adv-x="372" 
d="M235 83v407h-40v10h120v-490h40v-10h-120v47q-11 -19 -36.5 -35.5t-53.5 -16.5q-90 0 -90 105v390h-40v10h120v-445q0 -44 30 -44q22 0 46 23.5t24 48.5zM222 543h-10l-114 157h91z" />
    <glyph glyph-name="uacute" unicode="&#xfa;" horiz-adv-x="372" 
d="M235 83v407h-40v10h120v-490h40v-10h-120v47q-11 -19 -36.5 -35.5t-53.5 -16.5q-90 0 -90 105v390h-40v10h120v-445q0 -44 30 -44q22 0 46 23.5t24 48.5zM138 543h-10l33 157h91z" />
    <glyph glyph-name="ucircumflex" unicode="&#xfb;" horiz-adv-x="372" 
d="M235 83v407h-40v10h120v-490h40v-10h-120v47q-11 -19 -36.5 -35.5t-53.5 -16.5q-90 0 -90 105v390h-40v10h120v-445q0 -44 30 -44q22 0 46 23.5t24 48.5zM81 543h-10l83 157h61l83 -157h-10l-104 94z" />
    <glyph glyph-name="udieresis" unicode="&#xfc;" horiz-adv-x="372" 
d="M235 83v407h-40v10h120v-490h40v-10h-120v47q-11 -19 -36.5 -35.5t-53.5 -16.5q-90 0 -90 105v390h-40v10h120v-445q0 -44 30 -44q22 0 46 23.5t24 48.5zM70 618q0 19 13 32t32 13t32 -13t13 -32t-13 -32t-32 -13t-32 13t-13 32zM210 618q0 19 13 32t32 13t32 -13t13 -32
t-13 -32t-32 -13t-32 13t-13 32z" />
    <glyph glyph-name="yacute" unicode="&#xfd;" horiz-adv-x="329" 
d="M1 490v10h160v-10h-41l81 -338l77 338h-39v10h97v-10q-47 0 -56 -38l-128 -556q-13 -51 -50 -51q-19 0 -32 13t-13 32t13 32t32 13q30 0 42 -29l18 77l-121 507h-40zM156 543h-10l33 157h91z" />
    <glyph glyph-name="thorn" unicode="&#xfe;" horiz-adv-x="355" 
d="M134 430v-360q0 -27 19 -46t41 -19q17 0 28.5 13.5t11.5 36.5v390q0 23 -11.5 36.5t-28.5 13.5q-22 0 -41 -19t-19 -46zM134 700v-232q22 37 70 37q44 0 77 -28.5t33 -76.5v-300q0 -48 -33 -76.5t-77 -28.5q-48 0 -70 37v-177h40v-10h-160v10h40v835h-40v10h120z" />
    <glyph glyph-name="ydieresis" unicode="&#xff;" horiz-adv-x="329" 
d="M1 490v10h160v-10h-41l81 -338l77 338h-39v10h97v-10q-47 0 -56 -38l-128 -556q-13 -51 -50 -51q-19 0 -32 13t-13 32t13 32t32 13q30 0 42 -29l18 77l-121 507h-40zM64 618q0 19 13 32t32 13t32 -13t13 -32t-13 -32t-32 -13t-32 13t-13 32zM204 618q0 19 13 32t32 13
t32 -13t13 -32t-13 -32t-32 -13t-32 13t-13 32z" />
    <glyph glyph-name="Amacron" unicode="&#x100;" horiz-adv-x="400" 
d="M-6 0v10q48 0 56 38l140 662h16l154 -700h40v-10h-162v10h40l-42 195h-143l-41 -195h38v-10h-96zM163 533l-68 -318h139zM94 758v40h206v-40h-206z" />
    <glyph glyph-name="amacron" unicode="&#x101;" horiz-adv-x="343" 
d="M46 420q0 35 32.5 60t77.5 25q55 0 92.5 -33.5t37.5 -101.5v-310q0 -14 6 -24t14 -10t14 10t6 24h10q0 -27 -19 -46t-46 -19q-21 0 -38 12t-24 31q-18 -43 -70 -43q-45 0 -79 30.5t-34 74.5v34q0 25 18 51t36 40l18 14l108 73v98q0 85 -50 85q-46 0 -69 -30q21 0 35 -13
t14 -32t-13 -32t-32 -13t-32 13t-13 32zM206 61v237l-72 -50q-28 -19 -28 -114v-74q0 -21 9 -38t31 -17q20 0 39 16t21 40zM68 558v40h206v-40h-206z" />
    <glyph glyph-name="Abreve" unicode="&#x102;" horiz-adv-x="400" 
d="M-6 0v10q48 0 56 38l140 662h16l154 -700h40v-10h-162v10h40l-42 195h-143l-41 -195h38v-10h-96zM163 533l-68 -318h139zM310 856q0 -46 -33 -79.5t-80 -33.5t-80 33.5t-33 79.5h10q0 -25 29 -39t74 -14t74 14t29 39h10z" />
    <glyph glyph-name="abreve" unicode="&#x103;" horiz-adv-x="343" 
d="M46 420q0 35 32.5 60t77.5 25q55 0 92.5 -33.5t37.5 -101.5v-310q0 -14 6 -24t14 -10t14 10t6 24h10q0 -27 -19 -46t-46 -19q-21 0 -38 12t-24 31q-18 -43 -70 -43q-45 0 -79 30.5t-34 74.5v34q0 25 18 51t36 40l18 14l108 73v98q0 85 -50 85q-46 0 -69 -30q21 0 35 -13
t14 -32t-13 -32t-32 -13t-32 13t-13 32zM206 61v237l-72 -50q-28 -19 -28 -114v-74q0 -21 9 -38t31 -17q20 0 39 16t21 40zM284 656q0 -46 -33 -79.5t-80 -33.5t-80 33.5t-33 79.5h10q0 -25 29 -39t74 -14t74 14t29 39h10z" />
    <glyph glyph-name="Aogonek" unicode="&#x104;" horiz-adv-x="400" 
d="M-6 0v10q48 0 56 38l140 662h16l154 -700h40v-10h-162v10h40l-42 195h-143l-41 -195h38v-10h-96zM163 533l-68 -318h139zM353 -132q-23 -23 -57 -23q-32 0 -52 14.5t-20 41.5q0 55 92 99h12q-17 -19 -31.5 -47.5t-14.5 -47.5q0 -40 36 -40q16 0 30 9z" />
    <glyph glyph-name="aogonek" unicode="&#x105;" horiz-adv-x="343" 
d="M46 420q0 35 32.5 60t77.5 25q55 0 92.5 -33.5t37.5 -101.5v-310q0 -14 6 -24t14 -10t14 10t6 24h10q0 -27 -19 -46t-46 -19q-21 0 -38 12t-24 31q-18 -43 -70 -43q-45 0 -79 30.5t-34 74.5v34q0 25 18 51t36 40l18 14l108 73v98q0 85 -50 85q-46 0 -69 -30q21 0 35 -13
t14 -32t-13 -32t-32 -13t-32 13t-13 32zM206 61v237l-72 -50q-28 -19 -28 -114v-74q0 -21 9 -38t31 -17q20 0 39 16t21 40zM308 -132q-23 -23 -57 -23q-32 0 -52 14.5t-20 41.5q0 55 92 99h12q-17 -19 -31.5 -47.5t-14.5 -47.5q0 -40 36 -40q17 0 30 9z" />
    <glyph glyph-name="Cacute" unicode="&#x106;" horiz-adv-x="361" 
d="M319 150h10v-150h-10q0 36 -26 36q-36 -46 -94 -46q-62 0 -106 47t-44 113v400q0 66 44 113t106 47q59 0 94 -46q26 0 26 36h10v-150h-10q0 64 -32.5 107t-77.5 43q-37 0 -58.5 -43t-21.5 -107v-400q0 -64 21.5 -107t58.5 -43q45 0 77.5 43t32.5 107zM172 743h-10l33 157
h91z" />
    <glyph glyph-name="cacute" unicode="&#x107;" horiz-adv-x="308" 
d="M190 420q0 19 14 32t35 13q-19 30 -59 30q-26 0 -43 -21.5t-17 -63.5v-320q0 -42 17 -63.5t43 -21.5q35 0 62.5 23.5t27.5 71.5v33h10v-33q0 -49 -28.5 -77t-71.5 -28q-58 0 -99 32t-41 103v240q0 71 41 103t99 32q40 0 70 -25t30 -60q0 -19 -13 -32t-32 -13t-32 13
t-13 32zM133 543h-10l33 157h91z" />
    <glyph glyph-name="Ccaron" unicode="&#x10c;" horiz-adv-x="361" 
d="M319 150h10v-150h-10q0 36 -26 36q-36 -46 -94 -46q-62 0 -106 47t-44 113v400q0 66 44 113t106 47q59 0 94 -46q26 0 26 36h10v-150h-10q0 64 -32.5 107t-77.5 43q-37 0 -58.5 -43t-21.5 -107v-400q0 -64 21.5 -107t58.5 -43q45 0 77.5 43t32.5 107zM95 900h10l103 -94
l104 94h10l-83 -157h-61z" />
    <glyph glyph-name="ccaron" unicode="&#x10d;" horiz-adv-x="308" 
d="M190 420q0 19 14 32t35 13q-19 30 -59 30q-26 0 -43 -21.5t-17 -63.5v-320q0 -42 17 -63.5t43 -21.5q35 0 62.5 23.5t27.5 71.5v33h10v-33q0 -49 -28.5 -77t-71.5 -28q-58 0 -99 32t-41 103v240q0 71 41 103t99 32q40 0 70 -25t30 -60q0 -19 -13 -32t-32 -13t-32 13
t-13 32zM47 700h10l103 -94l104 94h10l-83 -157h-61z" />
    <glyph glyph-name="Dcaron" unicode="&#x10e;" 
d="M30 10h40v680h-40v10h160q79 0 129.5 -46.5t50.5 -113.5v-380q0 -67 -50.5 -113.5t-129.5 -46.5h-160v10zM290 160v380q0 62 -29.5 106t-70.5 44h-40v-680h40q41 0 70.5 44t29.5 106zM56 900h10l103 -94l104 94h10l-83 -157h-61z" />
    <glyph glyph-name="dcaron" unicode="&#x10f;" horiz-adv-x="358" 
d="M221 70v360q0 27 -19 46t-41 19q-17 0 -28.5 -13.5t-11.5 -36.5v-390q0 -23 11.5 -36.5t28.5 -13.5q22 0 41 19t19 46zM221 0v32q-22 -37 -70 -37q-44 0 -77 28.5t-33 76.5v300q0 48 33 76.5t77 28.5q48 0 70 -37v222h-40v10h120v-690h40v-10h-120zM339 659q0 21 14.5 36
t35.5 15q19 0 33 -12.5t17 -31.5q1 -5 1 -16q0 -40 -28 -70.5t-62 -30.5v10q18 0 37 16.5t23 38.5q-10 -5 -21 -5q-21 0 -35.5 14.5t-14.5 35.5z" />
    <glyph glyph-name="Dcroat" unicode="&#x110;" 
d="M30 345v10h40v335h-40v10h160q79 0 129.5 -46.5t50.5 -113.5v-380q0 -67 -50.5 -113.5t-129.5 -46.5h-160v10h40v335h-40zM290 160v380q0 62 -29.5 106t-70.5 44h-40v-335h90v-10h-90v-335h40q41 0 70.5 44t29.5 106z" />
    <glyph glyph-name="dcroat" unicode="&#x111;" horiz-adv-x="358" 
d="M221 0v32q-22 -37 -70 -37q-44 0 -77 28.5t-33 76.5v300q0 48 33 76.5t77 28.5q48 0 70 -37v107h-100v10h100v105h-40v10h120v-115h40v-10h-40v-565h40v-10h-120zM221 70v360q0 27 -19 46t-41 19q-17 0 -28.5 -13.5t-11.5 -36.5v-390q0 -23 11.5 -36.5t28.5 -13.5
q22 0 41 19t19 46z" />
    <glyph glyph-name="Emacron" unicode="&#x112;" horiz-adv-x="356" 
d="M320 700v-140h-10q0 54 -19 92t-46 38h-95v-335h60q16 0 28 23.5t12 56.5h10v-170h-10q0 33 -12 56.5t-28 23.5h-60v-335h95q27 0 46 38t19 92h10v-140h-290v10h40v680h-40v10h290zM87 758v40h206v-40h-206z" />
    <glyph glyph-name="emacron" unicode="&#x113;" horiz-adv-x="334" 
d="M120 254v-164q0 -42 17 -63.5t43 -21.5q37 0 68.5 30t31.5 95v23h10v-23q0 -66 -32.5 -100.5t-87.5 -34.5q-54 0 -92 34t-38 101v240q0 67 38 101t92 34t92 -34t38 -101v-116h-180zM120 370v-106h100v106q0 125 -50 125t-50 -125zM67 558v40h206v-40h-206z" />
    <glyph glyph-name="Edotaccent" unicode="&#x116;" horiz-adv-x="356" 
d="M320 700v-140h-10q0 54 -19 92t-46 38h-95v-335h60q16 0 28 23.5t12 56.5h10v-170h-10q0 33 -12 56.5t-28 23.5h-60v-335h95q27 0 46 38t19 92h10v-140h-290v10h40v680h-40v10h290zM145 818q0 19 13 32t32 13t32 -13t13 -32t-13 -32t-32 -13t-32 13t-13 32z" />
    <glyph glyph-name="edotaccent" unicode="&#x117;" horiz-adv-x="334" 
d="M120 254v-164q0 -42 17 -63.5t43 -21.5q37 0 68.5 30t31.5 95v23h10v-23q0 -66 -32.5 -100.5t-87.5 -34.5q-54 0 -92 34t-38 101v240q0 67 38 101t92 34t92 -34t38 -101v-116h-180zM120 370v-106h100v106q0 125 -50 125t-50 -125zM125 618q0 19 13 32t32 13t32 -13
t13 -32t-13 -32t-32 -13t-32 13t-13 32z" />
    <glyph glyph-name="Eogonek" unicode="&#x118;" horiz-adv-x="356" 
d="M320 700v-140h-10q0 54 -19 92t-46 38h-95v-335h60q16 0 28 23.5t12 56.5h10v-170h-10q0 33 -12 56.5t-28 23.5h-60v-335h95q27 0 46 38t19 92h10v-140h-290v10h40v680h-40v10h290zM290 -132q-23 -23 -57 -23q-32 0 -52 14.5t-20 41.5q0 55 92 99h12q-17 -19 -31.5 -47.5
t-14.5 -47.5q0 -40 36 -40q17 0 30 9z" />
    <glyph glyph-name="eogonek" unicode="&#x119;" horiz-adv-x="334" 
d="M120 254v-164q0 -42 17 -63.5t43 -21.5q37 0 68.5 30t31.5 95v23h10v-23q0 -66 -32.5 -100.5t-87.5 -34.5q-54 0 -92 34t-38 101v240q0 67 38 101t92 34t92 -34t38 -101v-116h-180zM120 370v-106h100v106q0 125 -50 125t-50 -125zM230 -132q-23 -23 -57 -23
q-32 0 -52 14.5t-20 41.5q0 55 92 99h12q-17 -19 -31.5 -47.5t-14.5 -47.5q0 -40 36 -40q17 0 30 9z" />
    <glyph glyph-name="Ecaron" unicode="&#x11a;" horiz-adv-x="356" 
d="M320 700v-140h-10q0 54 -19 92t-46 38h-95v-335h60q16 0 28 23.5t12 56.5h10v-170h-10q0 33 -12 56.5t-28 23.5h-60v-335h95q27 0 46 38t19 92h10v-140h-290v10h40v680h-40v10h290zM66 900h10l103 -94l104 94h10l-83 -157h-61z" />
    <glyph glyph-name="ecaron" unicode="&#x11b;" horiz-adv-x="334" 
d="M120 254v-164q0 -42 17 -63.5t43 -21.5q37 0 68.5 30t31.5 95v23h10v-23q0 -66 -32.5 -100.5t-87.5 -34.5q-54 0 -92 34t-38 101v240q0 67 38 101t92 34t92 -34t38 -101v-116h-180zM120 370v-106h100v106q0 125 -50 125t-50 -125zM57 700h10l103 -94l104 94h10l-83 -157
h-61z" />
    <glyph glyph-name="uni0122" unicode="&#x122;" horiz-adv-x="402" 
d="M349 339v-287q-37 0 -80 -31t-70 -31q-62 0 -106 47t-44 113v400q0 66 44 113t106 47q59 0 94 -46q26 0 26 36h10v-150h-10q0 64 -32.5 107t-77.5 43q-37 0 -58.5 -43t-21.5 -107v-400q0 -62 20.5 -106t49.5 -44t49.5 44t20.5 106v189h-40v10h160v-10h-40zM201 -50h20
q22 0 37.5 -15t15.5 -37t-15.5 -37.5t-37.5 -15.5h-32l2 10h20q28 0 28 23q0 22 -28 22h-10v50z" />
    <glyph glyph-name="uni0123" unicode="&#x123;" horiz-adv-x="375" 
d="M223 310v60q0 68 -12 96.5t-38 28.5t-38 -28.5t-12 -96.5v-60q0 -68 12 -96.5t38 -28.5t38 28.5t12 96.5zM263 -45v130h-130q-35 0 -62.5 13.5t-27.5 36.5q0 20 27.5 33t60.5 16q-88 37 -88 126v60q0 70 37 102.5t93 32.5q62 0 93 -31q26 31 66 31q13 0 21.5 -8.5
t8.5 -21.5t-8.5 -21.5t-21.5 -8.5t-21.5 9.5t-8.5 26.5q-13 -5 -27 -17q28 -36 28 -94v-60q0 -71 -36.5 -103t-93.5 -32h-20q-11 0 -20.5 -9.5t-9.5 -30.5t9.5 -30.5t20.5 -9.5h190v-120q0 -60 -46 -95t-114 -35q-66 0 -113 32t-47 78t47 78t113 32v-10q-35 0 -57.5 -28
t-22.5 -72t22.5 -72t57.5 -28t57.5 28t22.5 72zM191 555h-20q-22 0 -37.5 15t-15.5 37t15.5 37.5t37.5 15.5h32l-2 -10h-20q-28 0 -28 -23q0 -22 28 -22h10v-50z" />
    <glyph glyph-name="Itilde" unicode="&#x128;" horiz-adv-x="220" 
d="M30 700h160v-10h-40v-680h40v-10h-160v10h40v680h-40v10zM98 793q-47 28 -79.5 25t-32.5 -38h-10q0 58 45 83.5t102 -6.5q48 -28 80 -25t32 38h10q0 -58 -44.5 -83.5t-102.5 6.5z" />
    <glyph glyph-name="itilde" unicode="&#x129;" horiz-adv-x="203" 
d="M24 0v10h40v480h-40v10h120v-490h40v-10h-160zM92 593q-47 28 -79.5 25t-32.5 -38h-10q0 58 45 83.5t102 -6.5q48 -28 80 -25t32 38h10q0 -58 -44.5 -83.5t-102.5 6.5z" />
    <glyph glyph-name="Imacron" unicode="&#x12a;" horiz-adv-x="220" 
d="M30 700h160v-10h-40v-680h40v-10h-160v10h40v680h-40v10zM7 758v40h206v-40h-206z" />
    <glyph glyph-name="imacron" unicode="&#x12b;" horiz-adv-x="203" 
d="M24 0v10h40v480h-40v10h120v-490h40v-10h-160zM1 558v40h206v-40h-206z" />
    <glyph glyph-name="Iogonek" unicode="&#x12e;" horiz-adv-x="220" 
d="M30 700h160v-10h-40v-680h40v-10h-160v10h40v680h-40v10zM175 -132q-23 -23 -57 -23q-32 0 -52 14.5t-20 41.5q0 55 92 99h12q-17 -19 -31.5 -47.5t-14.5 -47.5q0 -40 36 -40q16 0 30 9z" />
    <glyph glyph-name="iogonek" unicode="&#x12f;" horiz-adv-x="203" 
d="M24 10v-10h160v10h-40v490h-120v-10h40v-480h-40zM54 620q0 21 14.5 35.5t35.5 14.5t35.5 -14.5t14.5 -35.5t-14.5 -35.5t-35.5 -14.5t-35.5 14.5t-14.5 35.5zM169 -132q-23 -23 -57 -23q-32 0 -52 14.5t-20 41.5q0 55 92 99h12q-17 -19 -31.5 -47.5t-14.5 -47.5
q0 -40 36 -40q16 0 30 9z" />
    <glyph glyph-name="dotlessi" unicode="&#x131;" horiz-adv-x="203" 
d="M24 0v10h40v480h-40v10h120v-490h40v-10h-160z" />
    <glyph glyph-name="uni0136" unicode="&#x136;" horiz-adv-x="407" 
d="M30 700h160v-10h-40v-355l188 355h-37v10h98v-10q-50 0 -67 -33l-99 -187l148 -460h40v-10h-159v10h39l-119 365l-32 -60v-305h40v-10h-160v10h40v680h-40v10zM182 -50h20q22 0 37.5 -15t15.5 -37t-15.5 -37.5t-37.5 -15.5h-32l2 10h20q28 0 28 23q0 22 -28 22h-10v50z
" />
    <glyph glyph-name="uni0137" unicode="&#x137;" horiz-adv-x="355" 
d="M208 0v10h37l-87 291l-21 -28v-263h40v-10h-160v10h40v680h-40v10h120v-410l148 200h-33v10h95v-10q-49 0 -72 -31l-60 -81l109 -368h39v-10h-155zM139 -50h20q22 0 37.5 -15t15.5 -37t-15.5 -37.5t-37.5 -15.5h-32l2 10h20q28 0 28 23q0 22 -28 22h-10v50z" />
    <glyph glyph-name="kgreenlandic" unicode="&#x138;" horiz-adv-x="360" 
d="M213 0v10h37l-87 291l-21 -28v-263h40v-10h-160v10h40v480h-40v10h120v-210l148 200h-33v10h95v-10q-49 0 -72 -31l-60 -81l109 -368h39v-10h-155z" />
    <glyph glyph-name="Lacute" unicode="&#x139;" horiz-adv-x="337" 
d="M320 0h-290v10h40v680h-40v10h160v-10h-40v-680h95q27 0 46 38t19 92h10v-140zM115 743h-10l33 157h91z" />
    <glyph glyph-name="lacute" unicode="&#x13a;" horiz-adv-x="198" 
d="M19 700h120v-690h40v-10h-160v10h40v680h-40v10zM72 743h-10l33 157h91z" />
    <glyph glyph-name="uni013B" unicode="&#x13b;" horiz-adv-x="337" 
d="M320 0h-290v10h40v680h-40v10h160v-10h-40v-680h95q27 0 46 38t19 92h10v-140zM152 -50h20q22 0 37.5 -15t15.5 -37t-15.5 -37.5t-37.5 -15.5h-32l2 10h20q28 0 28 23q0 22 -28 22h-10v50z" />
    <glyph glyph-name="uni013C" unicode="&#x13c;" horiz-adv-x="198" 
d="M19 700h120v-690h40v-10h-160v10h40v680h-40v10zM67 -50h20q22 0 37.5 -15t15.5 -37t-15.5 -37.5t-37.5 -15.5h-32l2 10h20q28 0 28 23q0 22 -28 22h-10v50z" />
    <glyph glyph-name="Lcaron" unicode="&#x13d;" horiz-adv-x="345" 
d="M320 0h-290v10h40v680h-40v10h160v-10h-40v-680h95q27 0 46 38t19 92h10v-140zM220 659q0 21 14.5 36t35.5 15q19 0 33 -12.5t17 -31.5q1 -5 1 -16q0 -40 -28 -70.5t-62 -30.5v10q18 0 37 16.5t23 38.5q-10 -5 -21 -5q-21 0 -35.5 14.5t-14.5 35.5z" />
    <glyph glyph-name="lcaron" unicode="&#x13e;" horiz-adv-x="198" 
d="M19 700h120v-690h40v-10h-160v10h40v680h-40v10zM177 659q0 21 14.5 36t35.5 15q19 0 33 -12.5t17 -31.5q1 -5 1 -16q0 -40 -28 -70.5t-62 -30.5v10q18 0 37 16.5t23 38.5q-10 -5 -21 -5q-21 0 -35.5 14.5t-14.5 35.5z" />
    <glyph glyph-name="Lslash" unicode="&#x141;" horiz-adv-x="337" 
d="M30 304v12l40 28v346h-40v10h160v-10h-40v-290l95 66v-12l-95 -66v-378h85q27 0 46 38t19 92h10v-140h-280v10h40v322z" />
    <glyph glyph-name="lslash" unicode="&#x142;" horiz-adv-x="200" 
d="M20 304v12l40 28v346h-40v10h120v-300l40 28v-12l-40 -28v-378h40v-10h-160v10h40v322z" />
    <glyph glyph-name="Nacute" unicode="&#x143;" horiz-adv-x="394" 
d="M25 700h107l186 -498v488h-40v10h95v-10q-45 0 -45 -30v-660h-16l-232 623v-613h40v-10h-95v10q45 0 45 30v620q0 30 -45 30v10zM177 743h-10l33 157h91z" />
    <glyph glyph-name="nacute" unicode="&#x144;" horiz-adv-x="377" 
d="M142 417v-407h40v-10h-160v10h40v480h-40v10h120v-47q11 19 36.5 35.5t53.5 16.5q90 0 90 -105v-390h40v-10h-160v10h40v435q0 44 -30 44q-22 0 -46 -23.5t-24 -48.5zM142 543h-10l33 157h91z" />
    <glyph glyph-name="uni0145" unicode="&#x145;" horiz-adv-x="394" 
d="M25 700h107l186 -498v488h-40v10h95v-10q-45 0 -45 -30v-660h-16l-232 623v-613h40v-10h-95v10q45 0 45 30v620q0 30 -45 30v10zM167 -50h20q22 0 37.5 -15t15.5 -37t-15.5 -37.5t-37.5 -15.5h-32l2 10h20q28 0 28 23q0 22 -28 22h-10v50z" />
    <glyph glyph-name="uni0146" unicode="&#x146;" horiz-adv-x="377" 
d="M142 417v-407h40v-10h-160v10h40v480h-40v10h120v-47q11 19 36.5 35.5t53.5 16.5q90 0 90 -105v-390h40v-10h-160v10h40v435q0 44 -30 44q-22 0 -46 -23.5t-24 -48.5zM154 -50h20q22 0 37.5 -15t15.5 -37t-15.5 -37.5t-37.5 -15.5h-32l2 10h20q28 0 28 23q0 22 -28 22
h-10v50z" />
    <glyph glyph-name="Ncaron" unicode="&#x147;" horiz-adv-x="394" 
d="M25 700h107l186 -498v488h-40v10h95v-10q-45 0 -45 -30v-660h-16l-232 623v-613h40v-10h-95v10q45 0 45 30v620q0 30 -45 30v10zM90 900h10l103 -94l104 94h10l-83 -157h-61z" />
    <glyph glyph-name="ncaron" unicode="&#x148;" horiz-adv-x="377" 
d="M142 417v-407h40v-10h-160v10h40v480h-40v10h120v-47q11 19 36.5 35.5t53.5 16.5q90 0 90 -105v-390h40v-10h-160v10h40v435q0 44 -30 44q-22 0 -46 -23.5t-24 -48.5zM78 700h10l103 -94l104 94h10l-83 -157h-61z" />
    <glyph glyph-name="Eng" unicode="&#x14a;" horiz-adv-x="394" 
d="M70 40v620q0 12 -9 21t-21 9h-10v10h102l186 -498v488h-40v10h95v-10q-45 0 -45 -30v-645q0 -71 -50 -120.5t-120 -49.5v10q37 0 63.5 47t26.5 113v157l-168 451v-613h40v-10h-95v10q45 0 45 30z" />
    <glyph glyph-name="eng" unicode="&#x14b;" horiz-adv-x="372" 
d="M322 400v-385q0 -71 -50 -120.5t-120 -49.5v10q37 0 63.5 47t26.5 113v430q0 23 -11.5 36.5t-28.5 13.5q-22 0 -41 -19t-19 -46v-420h40v-10h-160v10h40v480h-40v10h120v-32q22 37 70 37q44 0 77 -28.5t33 -76.5z" />
    <glyph glyph-name="Omacron" unicode="&#x14c;" 
d="M289 150v400q0 64 -21.5 107t-58.5 43t-58.5 -43t-21.5 -107v-400q0 -64 21.5 -107t58.5 -43t58.5 43t21.5 107zM49 150v400q0 67 45.5 113.5t114.5 46.5t114.5 -46.5t45.5 -113.5v-400q0 -67 -45.5 -113.5t-114.5 -46.5t-114.5 46.5t-45.5 113.5zM106 758v40h206v-40
h-206z" />
    <glyph glyph-name="omacron" unicode="&#x14d;" horiz-adv-x="340" 
d="M40 130v240q0 67 38 101t92 34t92 -34t38 -101v-240q0 -67 -38 -101t-92 -34t-92 34t-38 101zM220 130v240q0 125 -50 125t-50 -125v-240q0 -125 50 -125t50 125zM67 558v40h206v-40h-206z" />
    <glyph glyph-name="Ohungarumlaut" unicode="&#x150;" 
d="M289 150v400q0 64 -21.5 107t-58.5 43t-58.5 -43t-21.5 -107v-400q0 -64 21.5 -107t58.5 -43t58.5 43t21.5 107zM49 150v400q0 67 45.5 113.5t114.5 46.5t114.5 -46.5t45.5 -113.5v-400q0 -67 -45.5 -113.5t-114.5 -46.5t-114.5 46.5t-45.5 113.5zM150 743h-10l23 157h81
zM261 743h-10l23 157h81z" />
    <glyph glyph-name="ohungarumlaut" unicode="&#x151;" horiz-adv-x="340" 
d="M40 130v240q0 67 38 101t92 34t92 -34t38 -101v-240q0 -67 -38 -101t-92 -34t-92 34t-38 101zM220 130v240q0 125 -50 125t-50 -125v-240q0 -125 50 -125t50 125zM118 543h-10l23 157h81zM229 543h-10l23 157h81z" />
    <glyph glyph-name="OE" unicode="&#x152;" horiz-adv-x="575" 
d="M289 690h-80q-37 0 -58.5 -43t-21.5 -107v-380q0 -64 21.5 -107t58.5 -43h80v680zM539 0h-330q-69 0 -114.5 46.5t-45.5 113.5v380q0 67 45.5 113.5t114.5 46.5h330v-140h-10q0 54 -19 92t-46 38h-95v-335h60q17 0 28.5 23.5t11.5 56.5h10v-170h-10q0 33 -11.5 56.5
t-28.5 23.5h-60v-335h95q27 0 46 38t19 92h10v-140z" />
    <glyph glyph-name="oe" unicode="&#x153;" horiz-adv-x="514" 
d="M170 5q50 0 50 125v240q0 125 -50 125t-50 -125v-240q0 -125 50 -125zM300 370v-106h100v106q0 125 -50 125t-50 -125zM350 505q54 0 92 -34t38 -101v-116h-180v-164q0 -42 17 -63.5t43 -21.5q37 0 68.5 30t31.5 95v23h10v-23q0 -66 -32 -100.5t-88 -34.5q-59 0 -90 46
q-32 -46 -90 -46q-54 0 -92 34t-38 101v240q0 67 38 101t92 34q58 0 90 -46q31 46 90 46z" />
    <glyph glyph-name="Racute" unicode="&#x154;" horiz-adv-x="427" 
d="M190 340h-40v-330h40v-10h-160v10h40v680h-40v10h160q79 0 129.5 -46.5t50.5 -113.5v-40q0 -56 -36 -99t-96 -56q60 -13 96 -56t36 -99v-135q0 -14 6 -24t14 -10t14 10t6 24h10q0 -27 -19 -46t-46 -19t-46 19t-19 46v135q0 62 -29.5 106t-70.5 44zM190 690h-40v-340h40
q41 0 70.5 44t29.5 106v40q0 62 -29.5 106t-70.5 44zM154 743h-10l33 157h91z" />
    <glyph glyph-name="racute" unicode="&#x155;" horiz-adv-x="289" 
d="M192 440q0 18 12.5 31t30.5 14q-11 10 -33 10q-25 0 -42.5 -18t-17.5 -47v-420h40v-10h-160v10h40v480h-40v10h120v-31q20 36 69 36q29 0 50 -18t21 -47q0 -19 -13 -32t-32 -13t-32 13t-13 32zM120 543h-10l33 157h91z" />
    <glyph glyph-name="uni0156" unicode="&#x156;" horiz-adv-x="427" 
d="M190 340h-40v-330h40v-10h-160v10h40v680h-40v10h160q79 0 129.5 -46.5t50.5 -113.5v-40q0 -56 -36 -99t-96 -56q60 -13 96 -56t36 -99v-135q0 -14 6 -24t14 -10t14 10t6 24h10q0 -27 -19 -46t-46 -19t-46 19t-19 46v135q0 62 -29.5 106t-70.5 44zM190 690h-40v-340h40
q41 0 70.5 44t29.5 106v40q0 62 -29.5 106t-70.5 44zM172 -50h20q22 0 37.5 -15t15.5 -37t-15.5 -37.5t-37.5 -15.5h-32l2 10h20q28 0 28 23q0 22 -28 22h-10v50z" />
    <glyph glyph-name="uni0157" unicode="&#x157;" horiz-adv-x="289" 
d="M192 440q0 18 12.5 31t30.5 14q-11 10 -33 10q-25 0 -42.5 -18t-17.5 -47v-420h40v-10h-160v10h40v480h-40v10h120v-31q20 36 69 36q29 0 50 -18t21 -47q0 -19 -13 -32t-32 -13t-32 13t-13 32zM70 -50h20q22 0 37.5 -15t15.5 -37t-15.5 -37.5t-37.5 -15.5h-32l2 10h20
q28 0 28 23q0 22 -28 22h-10v50z" />
    <glyph glyph-name="Rcaron" unicode="&#x158;" horiz-adv-x="427" 
d="M190 340h-40v-330h40v-10h-160v10h40v680h-40v10h160q79 0 129.5 -46.5t50.5 -113.5v-40q0 -56 -36 -99t-96 -56q60 -13 96 -56t36 -99v-135q0 -14 6 -24t14 -10t14 10t6 24h10q0 -27 -19 -46t-46 -19t-46 19t-19 46v135q0 62 -29.5 106t-70.5 44zM190 690h-40v-340h40
q41 0 70.5 44t29.5 106v40q0 62 -29.5 106t-70.5 44zM67 900h10l103 -94l104 94h10l-83 -157h-61z" />
    <glyph glyph-name="rcaron" unicode="&#x159;" horiz-adv-x="289" 
d="M192 440q0 18 12.5 31t30.5 14q-11 10 -33 10q-25 0 -42.5 -18t-17.5 -47v-420h40v-10h-160v10h40v480h-40v10h120v-31q20 36 69 36q29 0 50 -18t21 -47q0 -19 -13 -32t-32 -13t-32 13t-13 32zM34 700h10l103 -94l104 94h10l-83 -157h-61z" />
    <glyph glyph-name="Sacute" unicode="&#x15a;" horiz-adv-x="361" 
d="M36 0v160h10q0 -65 37 -111t87 -46q40 0 66 36.5t26 90.5q0 51 -23.5 92.5t-56.5 72t-66 62.5t-56.5 78.5t-23.5 104.5q0 73 37 121.5t102 48.5q64 0 102 -46q27 0 27 36h10v-150h-10q0 60 -34 103.5t-80 43.5q-40 0 -61 -31.5t-21 -85.5q0 -51 23.5 -93.5t56.5 -73
t66 -62t56.5 -78t23.5 -103.5q0 -77 -40.5 -128.5t-108.5 -51.5q-77 0 -118 60q-21 -8 -21 -50h-10zM155 743h-10l33 157h91z" />
    <glyph glyph-name="sacute" unicode="&#x15b;" horiz-adv-x="308" 
d="M156 -5q-52 0 -89.5 28t-37.5 67q0 19 13.5 32t31.5 13q19 0 32 -13t13 -32t-14 -32t-35 -13q27 -40 80 -40q35 0 59.5 26.5t24.5 68.5q0 33 -20.5 59t-50 45t-59 40.5t-50 56t-20.5 79.5q0 52 35 88.5t85 36.5q47 0 78.5 -24.5t31.5 -60.5q0 -19 -13.5 -32t-31.5 -13
q-19 0 -32 13t-13 32t14 32t35 13q-18 30 -63 30q-32 0 -54 -23.5t-22 -61.5q0 -33 20.5 -59t50 -45t59 -40.5t50 -56t20.5 -79.5q0 -56 -37.5 -95.5t-90.5 -39.5zM122 543h-10l33 157h91z" />
    <glyph glyph-name="Scedilla" unicode="&#x15e;" horiz-adv-x="361" 
d="M36 0v160h10q0 -65 37 -111t87 -46q40 0 66 36.5t26 90.5q0 51 -23.5 92.5t-56.5 72t-66 62.5t-56.5 78.5t-23.5 104.5q0 73 37 121.5t102 48.5q64 0 102 -46q27 0 27 36h10v-150h-10q0 60 -34 103.5t-80 43.5q-40 0 -61 -31.5t-21 -85.5q0 -51 23.5 -93.5t56.5 -73
t66 -62t56.5 -78t23.5 -103.5q0 -77 -40.5 -128.5t-108.5 -51.5q-77 0 -118 60q-21 -8 -21 -50h-10zM160 -100l17 100h10l-8 -50h10q22 0 37.5 -15t15.5 -37t-15.5 -37.5t-37.5 -15.5h-32l2 10h20q28 0 28 23q0 22 -28 22h-19z" />
    <glyph glyph-name="scedilla" unicode="&#x15f;" horiz-adv-x="308" 
d="M156 -5q-52 0 -89.5 28t-37.5 67q0 19 13.5 32t31.5 13q19 0 32 -13t13 -32t-14 -32t-35 -13q27 -40 80 -40q35 0 59.5 26.5t24.5 68.5q0 33 -20.5 59t-50 45t-59 40.5t-50 56t-20.5 79.5q0 52 35 88.5t85 36.5q47 0 78.5 -24.5t31.5 -60.5q0 -19 -13.5 -32t-31.5 -13
q-19 0 -32 13t-13 32t14 32t35 13q-18 30 -63 30q-32 0 -54 -23.5t-22 -61.5q0 -33 20.5 -59t50 -45t59 -40.5t50 -56t20.5 -79.5q0 -56 -37.5 -95.5t-90.5 -39.5zM136 -100l17 100h10l-8 -50h10q22 0 37.5 -15t15.5 -37t-15.5 -37.5t-37.5 -15.5h-32l2 10h20q28 0 28 23
q0 22 -28 22h-19z" />
    <glyph glyph-name="Scaron" unicode="&#x160;" horiz-adv-x="361" 
d="M36 0v160h10q0 -65 37 -111t87 -46q40 0 66 36.5t26 90.5q0 51 -23.5 92.5t-56.5 72t-66 62.5t-56.5 78.5t-23.5 104.5q0 73 37 121.5t102 48.5q64 0 102 -46q27 0 27 36h10v-150h-10q0 60 -34 103.5t-80 43.5q-40 0 -61 -31.5t-21 -85.5q0 -51 23.5 -93.5t56.5 -73
t66 -62t56.5 -78t23.5 -103.5q0 -77 -40.5 -128.5t-108.5 -51.5q-77 0 -118 60q-21 -8 -21 -50h-10zM61 900h10l103 -94l104 94h10l-83 -157h-61z" />
    <glyph glyph-name="scaron" unicode="&#x161;" horiz-adv-x="308" 
d="M156 -5q-52 0 -89.5 28t-37.5 67q0 19 13.5 32t31.5 13q19 0 32 -13t13 -32t-14 -32t-35 -13q27 -40 80 -40q35 0 59.5 26.5t24.5 68.5q0 33 -20.5 59t-50 45t-59 40.5t-50 56t-20.5 79.5q0 52 35 88.5t85 36.5q47 0 78.5 -24.5t31.5 -60.5q0 -19 -13.5 -32t-31.5 -13
q-19 0 -32 13t-13 32t14 32t35 13q-18 30 -63 30q-32 0 -54 -23.5t-22 -61.5q0 -33 20.5 -59t50 -45t59 -40.5t50 -56t20.5 -79.5q0 -56 -37.5 -95.5t-90.5 -39.5zM43 700h10l103 -94l104 94h10l-83 -157h-61z" />
    <glyph glyph-name="uni0162" unicode="&#x162;" horiz-adv-x="392" 
d="M176 -100l17 100h-77v10h40v680h-65q-27 0 -46 -38t-19 -92h-10v140h360v-140h-10q0 54 -19 92t-46 38h-65v-680h40v-10h-73l-8 -50h10q22 0 37.5 -15t15.5 -37t-15.5 -37.5t-37.5 -15.5h-32l2 10h20q28 0 28 23q0 22 -28 22h-19z" />
    <glyph glyph-name="uni0163" unicode="&#x163;" horiz-adv-x="207" 
d="M179 60h10q0 -26 -17.5 -44.5t-42.5 -20.5l-7 -45h10q22 0 37.5 -15t15.5 -37t-15.5 -37.5t-37.5 -15.5h-32l2 10h20q28 0 28 23q0 22 -28 22h-19l16 95q-26 2 -43 20.5t-17 44.5v430h-50v10h50v67l80 53v-120h60v-10h-60v-430q0 -15 6 -26t14 -11t14 11t6 26z" />
    <glyph glyph-name="Tcaron" unicode="&#x164;" horiz-adv-x="392" 
d="M16 700h360v-140h-10q0 54 -19 92t-46 38h-65v-680h40v-10h-160v10h40v680h-65q-27 0 -46 -38t-19 -92h-10v140zM83 900h10l103 -94l104 94h10l-83 -157h-61z" />
    <glyph glyph-name="tcaron" unicode="&#x165;" horiz-adv-x="207" 
d="M189 60h-10q0 -14 -6 -24t-14 -10t-14 10t-6 24v430h60v10h-60v120l-80 -53v-67h-50v-10h50v-430q0 -27 19 -46t46 -19t46 19t19 46zM179 629q0 21 14.5 36t35.5 15q19 0 33 -12.5t17 -31.5q1 -5 1 -16q0 -40 -28 -70.5t-62 -30.5v10q18 0 37 16.5t23 38.5q-10 -5 -21 -5
q-21 0 -35.5 14.5t-14.5 35.5z" />
    <glyph glyph-name="Tbar" unicode="&#x166;" horiz-adv-x="392" 
d="M81 410v10h75v270h-65q-27 0 -46 -38t-19 -92h-10v140h360v-140h-10q0 54 -19 92t-46 38h-65v-270h75v-10h-75v-400h40v-10h-160v10h40v400h-75z" />
    <glyph glyph-name="tbar" unicode="&#x167;" horiz-adv-x="209" 
d="M11 330v10h50v150h-50v10h50v67l80 53v-120h60v-10h-60v-150h60v-10h-60v-270q0 -15 6 -26t14 -11t14 11t6 26h10q0 -27 -19 -46t-46 -19t-46 19t-19 46v270h-50z" />
    <glyph glyph-name="Utilde" unicode="&#x168;" horiz-adv-x="405" 
d="M342 660v-510q0 -66 -35 -113t-85 -47q-69 0 -114.5 46.5t-45.5 113.5v540h-40v10h160v-10h-40v-540q0 -64 21.5 -107t58.5 -43q46 0 78 44t32 106v540h-40v10h95v-10q-45 0 -45 -30zM197 793q-47 28 -79.5 25t-32.5 -38h-10q0 58 45 83.5t102 -6.5q48 -28 80 -25t32 38
h10q0 -58 -44.5 -83.5t-102.5 6.5z" />
    <glyph glyph-name="utilde" unicode="&#x169;" horiz-adv-x="372" 
d="M235 83v407h-40v10h120v-490h40v-10h-120v47q-11 -19 -36.5 -35.5t-53.5 -16.5q-90 0 -90 105v390h-40v10h120v-445q0 -44 30 -44q22 0 46 23.5t24 48.5zM173 593q-47 28 -79.5 25t-32.5 -38h-10q0 58 45 83.5t102 -6.5q48 -28 80 -25t32 38h10q0 -58 -44.5 -83.5
t-102.5 6.5z" />
    <glyph glyph-name="Umacron" unicode="&#x16a;" horiz-adv-x="405" 
d="M342 660v-510q0 -66 -35 -113t-85 -47q-69 0 -114.5 46.5t-45.5 113.5v540h-40v10h160v-10h-40v-540q0 -64 21.5 -107t58.5 -43q46 0 78 44t32 106v540h-40v10h95v-10q-45 0 -45 -30zM106 758v40h206v-40h-206z" />
    <glyph glyph-name="umacron" unicode="&#x16b;" horiz-adv-x="372" 
d="M235 83v407h-40v10h120v-490h40v-10h-120v47q-11 -19 -36.5 -35.5t-53.5 -16.5q-90 0 -90 105v390h-40v10h120v-445q0 -44 30 -44q22 0 46 23.5t24 48.5zM82 558v40h206v-40h-206z" />
    <glyph glyph-name="Uring" unicode="&#x16e;" horiz-adv-x="405" 
d="M342 660v-510q0 -66 -35 -113t-85 -47q-69 0 -114.5 46.5t-45.5 113.5v540h-40v10h160v-10h-40v-540q0 -64 21.5 -107t58.5 -43q46 0 78 44t32 106v540h-40v10h95v-10q-45 0 -45 -30zM166 826q0 -18 12.5 -30.5t30.5 -12.5t30.5 12.5t12.5 30.5t-12.5 30.5t-30.5 12.5
t-30.5 -12.5t-12.5 -30.5zM126 826q0 34 24 58.5t59 24.5t59 -24.5t24 -58.5t-24 -58.5t-59 -24.5t-59 24.5t-24 58.5z" />
    <glyph glyph-name="uring" unicode="&#x16f;" horiz-adv-x="372" 
d="M235 83v407h-40v10h120v-490h40v-10h-120v47q-11 -19 -36.5 -35.5t-53.5 -16.5q-90 0 -90 105v390h-40v10h120v-445q0 -44 30 -44q22 0 46 23.5t24 48.5zM142 626q0 -18 12.5 -30.5t30.5 -12.5t30.5 12.5t12.5 30.5t-12.5 30.5t-30.5 12.5t-30.5 -12.5t-12.5 -30.5z
M102 626q0 34 24 58.5t59 24.5t59 -24.5t24 -58.5t-24 -58.5t-59 -24.5t-59 24.5t-24 58.5z" />
    <glyph glyph-name="Uhungarumlaut" unicode="&#x170;" horiz-adv-x="405" 
d="M342 660v-510q0 -66 -35 -113t-85 -47q-69 0 -114.5 46.5t-45.5 113.5v540h-40v10h160v-10h-40v-540q0 -64 21.5 -107t58.5 -43q46 0 78 44t32 106v540h-40v10h95v-10q-45 0 -45 -30zM137 743h-10l23 157h81zM248 743h-10l23 157h81z" />
    <glyph glyph-name="uhungarumlaut" unicode="&#x171;" horiz-adv-x="372" 
d="M235 83v407h-40v10h120v-490h40v-10h-120v47q-11 -19 -36.5 -35.5t-53.5 -16.5q-90 0 -90 105v390h-40v10h120v-445q0 -44 30 -44q22 0 46 23.5t24 48.5zM112 543h-10l23 157h81zM223 543h-10l23 157h81z" />
    <glyph glyph-name="Uogonek" unicode="&#x172;" horiz-adv-x="406" 
d="M343 660v-510q0 -66 -35.5 -113t-84.5 -47q-69 0 -114.5 46.5t-45.5 113.5v540h-40v10h160v-10h-40v-540q0 -64 21.5 -107t58.5 -43q46 0 78 44t32 106v540h-40v10h95v-10q-45 0 -45 -30zM287 -132q-23 -23 -57 -23q-32 0 -52 14.5t-20 41.5q0 55 92 99h12
q-17 -19 -31.5 -47.5t-14.5 -47.5q0 -40 36 -40q16 0 30 9z" />
    <glyph glyph-name="uogonek" unicode="&#x173;" horiz-adv-x="372" 
d="M235 83v407h-40v10h120v-490h40v-10h-120v47q-11 -19 -36.5 -35.5t-53.5 -16.5q-90 0 -90 105v390h-40v10h120v-445q0 -44 30 -44q22 0 46 23.5t24 48.5zM340 -132q-23 -23 -57 -23q-32 0 -52 14.5t-20 41.5q0 55 92 99h12q-17 -19 -31.5 -47.5t-14.5 -47.5q0 -40 36 -40
q17 0 30 9z" />
    <glyph glyph-name="Ydieresis" unicode="&#x178;" horiz-adv-x="389" 
d="M114 10h40v304l-107 376h-40v10h160v-10h-40l102 -360l108 360h-39v10h98v-10q-49 0 -60 -37l-102 -340v-303h40v-10h-160v10zM86 818q0 19 13 32t32 13t32 -13t13 -32t-13 -32t-32 -13t-32 13t-13 32zM226 818q0 19 13 32t32 13t32 -13t13 -32t-13 -32t-32 -13t-32 13
t-13 32z" />
    <glyph glyph-name="Zacute" unicode="&#x179;" horiz-adv-x="348" 
d="M316 0h-294l217 690h-132q-27 0 -46 -38t-19 -92h-10v140h294l-217 -690h132q27 0 46 38t19 92h10v-140zM135 743h-10l33 157h91z" />
    <glyph glyph-name="zacute" unicode="&#x17a;" horiz-adv-x="323" 
d="M24 10l186 480h-101q-27 0 -46 -38t-19 -92h-10v140h260v-10l-186 -480h111q27 0 46 38t19 92h10v-140h-270v10zM132 543h-10l33 157h91z" />
    <glyph glyph-name="Zdotaccent" unicode="&#x17b;" horiz-adv-x="348" 
d="M316 0h-294l217 690h-132q-27 0 -46 -38t-19 -92h-10v140h294l-217 -690h132q27 0 46 38t19 92h10v-140zM127 818q0 19 13 32t32 13t32 -13t13 -32t-13 -32t-32 -13t-32 13t-13 32z" />
    <glyph glyph-name="zdotaccent" unicode="&#x17c;" horiz-adv-x="323" 
d="M24 10l186 480h-101q-27 0 -46 -38t-19 -92h-10v140h260v-10l-186 -480h111q27 0 46 38t19 92h10v-140h-270v10zM114 618q0 19 13 32t32 13t32 -13t13 -32t-13 -32t-32 -13t-32 13t-13 32z" />
    <glyph glyph-name="Zcaron" unicode="&#x17d;" horiz-adv-x="348" 
d="M316 0h-294l217 690h-132q-27 0 -46 -38t-19 -92h-10v140h294l-217 -690h132q27 0 46 38t19 92h10v-140zM66 900h10l103 -94l104 94h10l-83 -157h-61z" />
    <glyph glyph-name="zcaron" unicode="&#x17e;" horiz-adv-x="323" 
d="M24 10l186 480h-101q-27 0 -46 -38t-19 -92h-10v140h260v-10l-186 -480h111q27 0 46 38t19 92h10v-140h-270v10zM46 700h10l103 -94l104 94h10l-83 -157h-61z" />
    <glyph glyph-name="florin" unicode="&#x192;" horiz-adv-x="516" 
d="M194 490l2 10h40l13 75q12 71 55 103t99 32q41 0 70.5 -25t29.5 -60q0 -19 -13 -32t-32 -13t-32 13t-13 32t14 32t35 13q-19 30 -61 30q-51 0 -65 -85l-21 -115h81l-2 -10h-81l-89 -510q-12 -71 -55 -103t-99 -32q-41 0 -70.5 25t-29.5 60q0 19 13 32t32 13t32 -13
t13 -32t-14 -32t-35 -13q19 -30 61 -30q51 0 65 85l97 550h-40z" />
    <glyph glyph-name="circumflex" unicode="&#x2c6;" horiz-adv-x="327" 
d="M60 543h-10l83 157h61l83 -157h-10l-104 94z" />
    <glyph glyph-name="caron" unicode="&#x2c7;" horiz-adv-x="327" 
d="M50 700h10l103 -94l104 94h10l-83 -157h-61z" />
    <glyph glyph-name="breve" unicode="&#x2d8;" horiz-adv-x="326" 
d="M276 656q0 -46 -33 -79.5t-80 -33.5t-80 33.5t-33 79.5h10q0 -25 29 -39t74 -14t74 14t29 39h10z" />
    <glyph glyph-name="dotaccent" unicode="&#x2d9;" horiz-adv-x="190" 
d="M50 618q0 19 13 32t32 13t32 -13t13 -32t-13 -32t-32 -13t-32 13t-13 32z" />
    <glyph glyph-name="ring" unicode="&#x2da;" horiz-adv-x="266" 
d="M90 626q0 -18 12.5 -30.5t30.5 -12.5t30.5 12.5t12.5 30.5t-12.5 30.5t-30.5 12.5t-30.5 -12.5t-12.5 -30.5zM50 626q0 34 24 58.5t59 24.5t59 -24.5t24 -58.5t-24 -58.5t-59 -24.5t-59 24.5t-24 58.5z" />
    <glyph glyph-name="ogonek" unicode="&#x2db;" horiz-adv-x="229" 
d="M179 -132q-23 -23 -57 -23q-32 0 -52 14.5t-20 41.5q0 55 92 99h12q-17 -19 -31.5 -47.5t-14.5 -47.5q0 -40 36 -40q16 0 30 9z" />
    <glyph glyph-name="tilde" unicode="&#x2dc;" horiz-adv-x="369" 
d="M172 593q-47 28 -79.5 25t-32.5 -38h-10q0 58 45 83.5t102 -6.5q48 -28 80 -25t32 38h10q0 -58 -44.5 -83.5t-102.5 6.5z" />
    <glyph glyph-name="hungarumlaut" unicode="&#x2dd;" horiz-adv-x="315" 
d="M60 543h-10l23 157h81zM171 543h-10l23 157h81z" />
    <glyph glyph-name="pi" unicode="&#x3c0;" horiz-adv-x="426" 
d="M266 460h-100v-450h40v-10h-160v10h40v443q-60 -21 -60 -63h-10q0 110 120 110h270v-40h-60v-400q0 -14 6 -24t14 -10t14 10t6 24h10q0 -27 -19 -46t-46 -19t-46 19t-19 46v400z" />
    <glyph glyph-name="endash" unicode="&#x2013;" horiz-adv-x="534" 
d="M47 225v50h440v-50h-440z" />
    <glyph glyph-name="emdash" unicode="&#x2014;" horiz-adv-x="634" 
d="M47 225v50h540v-50h-540z" />
    <glyph glyph-name="quoteleft" unicode="&#x2018;" horiz-adv-x="159" 
d="M130 600q0 -21 -14.5 -36t-35.5 -15q-19 0 -33 12.5t-17 31.5q-1 5 -1 16q0 41 28 71t62 30v-10q-18 0 -37 -16.5t-23 -38.5q10 5 21 5q21 0 35.5 -14.5t14.5 -35.5z" />
    <glyph glyph-name="quoteright" unicode="&#x2019;" horiz-adv-x="161" 
d="M34 659q0 21 14.5 36t35.5 15q19 0 33 -12.5t17 -31.5q1 -5 1 -16q0 -40 -28 -70.5t-62 -30.5v10q18 0 37 16.5t23 38.5q-10 -5 -21 -5q-21 0 -35.5 14.5t-14.5 35.5z" />
    <glyph glyph-name="quotesinglbase" unicode="&#x201a;" horiz-adv-x="170" 
d="M34 40q0 21 14.5 36t35.5 15q19 0 33 -12.5t17 -31.5q1 -5 1 -16q0 -40 -28 -70.5t-62 -30.5v10q18 0 37 16.5t23 38.5q-10 -5 -21 -5q-21 0 -35.5 14.5t-14.5 35.5z" />
    <glyph glyph-name="quotedblleft" unicode="&#x201c;" horiz-adv-x="289" 
d="M130 600q0 -21 -14.5 -36t-35.5 -15q-19 0 -33 12.5t-17 31.5q-1 5 -1 16q0 41 28 71t62 30v-10q-18 0 -37 -16.5t-23 -38.5q10 5 21 5q21 0 35.5 -14.5t14.5 -35.5zM260 600q0 -21 -14.5 -36t-35.5 -15q-19 0 -33 12.5t-17 31.5q-1 5 -1 16q0 41 28 71t62 30v-10
q-18 0 -37 -16.5t-23 -38.5q10 5 21 5q21 0 35.5 -14.5t14.5 -35.5z" />
    <glyph glyph-name="quotedblright" unicode="&#x201d;" horiz-adv-x="291" 
d="M164 659q0 21 14.5 36t35.5 15q19 0 33 -12.5t17 -31.5q1 -5 1 -16q0 -40 -28 -70.5t-62 -30.5v10q18 0 37 16.5t23 38.5q-10 -5 -21 -5q-21 0 -35.5 14.5t-14.5 35.5zM34 659q0 21 14.5 36t35.5 15q19 0 33 -12.5t17 -31.5q1 -5 1 -16q0 -40 -28 -70.5t-62 -30.5v10
q18 0 37 16.5t23 38.5q-10 -5 -21 -5q-21 0 -35.5 14.5t-14.5 35.5z" />
    <glyph glyph-name="quotedblbase" unicode="&#x201e;" horiz-adv-x="300" 
d="M164 40q0 21 14.5 36t35.5 15q19 0 33 -12.5t17 -31.5q1 -5 1 -16q0 -40 -28 -70.5t-62 -30.5v10q18 0 37 16.5t23 38.5q-10 -5 -21 -5q-21 0 -35.5 14.5t-14.5 35.5zM34 40q0 21 14.5 36t35.5 15q19 0 33 -12.5t17 -31.5q1 -5 1 -16q0 -40 -28 -70.5t-62 -30.5v10
q18 0 37 16.5t23 38.5q-10 -5 -21 -5q-21 0 -35.5 14.5t-14.5 35.5z" />
    <glyph glyph-name="dagger" unicode="&#x2020;" horiz-adv-x="306" 
d="M108 500h16l24 30q0 20 -22.5 68t-22.5 62q0 21 14.5 35.5t35.5 14.5t35.5 -14.5t14.5 -35.5q0 -14 -22.5 -62t-22.5 -68l24 -30h16l30 20h60v-50h-60l-30 20h-16l-24 -645h-10l-24 645h-16l-30 -20h-60v50h60z" />
    <glyph glyph-name="daggerdbl" unicode="&#x2021;" horiz-adv-x="340" 
d="M141 55h-16l-30 -20h-60v50h60l30 -20h16l24 75v275l-24 75h-16l-30 -20h-60v50h60l30 -20h16l24 30q0 20 -22.5 68t-22.5 62q0 21 14.5 35.5t35.5 14.5t35.5 -14.5t14.5 -35.5q0 -14 -22.5 -62t-22.5 -68l24 -30h16l30 20h60v-50h-60l-30 20h-16l-24 -75v-275l24 -75h16
l30 20h60v-50h-60l-30 20h-16l-24 -30q0 -20 22.5 -68t22.5 -62q0 -21 -14.5 -35.5t-35.5 -14.5t-35.5 14.5t-14.5 35.5q0 14 22.5 62t22.5 68z" />
    <glyph glyph-name="bullet" unicode="&#x2022;" horiz-adv-x="266" 
d="M63 260q0 29 20.5 49.5t49.5 20.5t49.5 -20.5t20.5 -49.5t-20.5 -49.5t-49.5 -20.5t-49.5 20.5t-20.5 49.5z" />
    <glyph glyph-name="ellipsis" unicode="&#x2026;" horiz-adv-x="488" 
d="M34 40q0 21 14.5 35.5t35.5 14.5t35.5 -14.5t14.5 -35.5t-14.5 -35.5t-35.5 -14.5t-35.5 14.5t-14.5 35.5zM194 40q0 21 14.5 35.5t35.5 14.5t35.5 -14.5t14.5 -35.5t-14.5 -35.5t-35.5 -14.5t-35.5 14.5t-14.5 35.5zM354 40q0 21 14.5 35.5t35.5 14.5t35.5 -14.5
t14.5 -35.5t-14.5 -35.5t-35.5 -14.5t-35.5 14.5t-14.5 35.5z" />
    <glyph glyph-name="perthousand" unicode="&#x2030;" horiz-adv-x="868" 
d="M184 394v220q0 86 -42 86t-42 -86v-220q0 -86 42 -86t42 86zM30 394v220q0 40 33 68t79 28t79 -28t33 -68v-220q0 -40 -33 -68t-79 -28t-79 28t-33 68zM139 0h-10l327 700h10zM494 86v220q0 86 -42 86t-42 -86v-220q0 -86 42 -86t42 86zM340 86v220q0 40 33 68t79 28
t79 -28t33 -68v-220q0 -40 -33 -68t-79 -28t-79 28t-33 68zM769 86v220q0 86 -42 86t-42 -86v-220q0 -86 42 -86t42 86zM615 86v220q0 40 33 68t79 28t79 -28t33 -68v-220q0 -40 -33 -68t-79 -28t-79 28t-33 68z" />
    <glyph glyph-name="guilsinglleft" unicode="&#x2039;" horiz-adv-x="236" 
d="M193 182h-80q0 61 -26.5 105.5t-63.5 44.5v10q37 0 63.5 44t26.5 106h80q0 -55 -36 -98t-91 -57q55 -14 91 -57t36 -98z" />
    <glyph glyph-name="guilsinglright" unicode="&#x203a;" horiz-adv-x="236" 
d="M123 182h-80q0 55 36 98t91 57q-55 14 -91 57t-36 98h80q0 -62 26.5 -106t63.5 -44v-10q-37 0 -63.5 -44.5t-26.5 -105.5z" />
    <glyph glyph-name="fraction" unicode="&#x2044;" horiz-adv-x="289" 
d="M39 0h-43l254 700h43z" />
    <glyph glyph-name="Euro" unicode="&#x20ac;" horiz-adv-x="397" 
d="M26 395v10h40v145q0 76 48 118t117 42q64 0 99.5 -41t35.5 -84q0 -19 -13.5 -32t-31.5 -13q-19 0 -32 13t-13 32t14.5 32t39.5 13q-20 70 -99 70q-40 0 -62.5 -35t-22.5 -95v-165h140v-10h-140v-90h140v-10h-140v-165q0 -60 22.5 -95t62.5 -35q79 0 99 70q-25 0 -39.5 13
t-14.5 32t13 32t32 13q18 0 31.5 -13t13.5 -32q0 -43 -35.5 -84t-99.5 -41q-69 0 -117 42t-48 118v145h-40v10h40v90h-40z" />
    <glyph glyph-name="trademark" unicode="&#x2122;" horiz-adv-x="834" 
d="M30 720h300v-140h-10q0 54 -19 92t-46 38h-35v-400h40v-10h-160v10h40v400h-35q-27 0 -46 -38t-19 -92h-10v140zM465 300h-95v10q45 0 45 30v340q0 12 -10.5 21t-29.5 9v10h113l93 -297l95 297h120v-10h-40v-400h40v-10h-160v10h40v372l-125 -382h-12l-114 368v-358h40
v-10z" />
    <glyph glyph-name="Omega" unicode="&#x2126;" horiz-adv-x="406" 
d="M233 0v100q0 31 25 68.5t25 81.5v300q0 64 -21.5 107t-58.5 43t-58.5 -43t-21.5 -107v-300q0 -44 25 -81.5t25 -68.5v-100h-100v120h10v-40h80v20q0 19 -12.5 33.5t-30 24.5t-35 21t-30 29t-12.5 42v300q0 65 48.5 112.5t111.5 47.5t111.5 -47.5t48.5 -112.5v-300
q0 -24 -12.5 -42t-30 -29t-35 -21t-30 -24.5t-12.5 -33.5v-20h80v40h10v-120h-100z" />
    <glyph glyph-name="partialdiff" unicode="&#x2202;" horiz-adv-x="410" 
d="M153 -10q-63 0 -99.5 70.5t-18.5 167.5q17 98 78 168.5t124 70.5q49 0 72 -41l31 174q13 70 -1.5 110t-51.5 40q-46 0 -86 -44t-51 -106h-10q12 66 55.5 113t92.5 47q65 0 94 -108t-1 -277q-31 -169 -97 -277t-131 -108zM154 0q37 0 65.5 40t41.5 110l45 260
q-23 47 -71 47q-37 0 -65.5 -40t-40.5 -110l-28 -157q-13 -70 1.5 -110t51.5 -40z" />
    <glyph glyph-name="Delta" unicode="&#x2206;" horiz-adv-x="482" 
d="M17 0l215 710l234 -710h-449zM197 559l-157 -519h329z" />
    <glyph glyph-name="product" unicode="&#x220f;" horiz-adv-x="436" 
d="M28 690v10h380v-10h-40v-680h40v-10h-160v10h40v680h-140v-680h40v-10h-160v10h40v680h-40z" />
    <glyph glyph-name="summation" unicode="&#x2211;" horiz-adv-x="531" 
d="M17 -100l266 371l-246 429h440v-140h-10q0 54 -19 92t-46 38h-274l211 -359l-252 -351h400v40h10v-120h-480z" />
    <glyph glyph-name="minus" unicode="&#x2212;" horiz-adv-x="426" 
d="M48 325v50h330v-50h-330z" />
    <glyph glyph-name="radical" unicode="&#x221a;" horiz-adv-x="409" 
d="M349 835l-179 -845h-20l-105 500h-40v10h118l72 -343l146 688h76v-10h-68z" />
    <glyph glyph-name="infinity" unicode="&#x221e;" horiz-adv-x="754" 
d="M196 175q-69 0 -117 50t-48 125t48 125t117 50q86 0 166 -140q23 33 37.5 51t40 42t54.5 35.5t64 11.5q69 0 117 -50t48 -125t-48 -125t-117 -50q-46 0 -86 34.5t-81 105.5q-23 -33 -37.5 -51t-40 -42t-54.5 -35.5t-63 -11.5zM196 245q21 0 41.5 9t32.5 17t32.5 32.5
t26 32.5t28.5 41q-17 29 -62.5 53.5t-98.5 24.5q-64 0 -109.5 -30.5t-45.5 -74.5t45.5 -74.5t109.5 -30.5zM558 455q-21 0 -41.5 -8.5t-33 -17t-32 -32.5t-26 -33t-28.5 -41q17 -29 62.5 -53.5t98.5 -24.5q64 0 109.5 30.5t45.5 74.5t-45.5 74.5t-109.5 30.5z" />
    <glyph glyph-name="integral" unicode="&#x222b;" horiz-adv-x="376" 
d="M148 -60v770q0 71 37 103t93 32q41 0 70.5 -25t29.5 -60q0 -19 -13 -32t-32 -13t-32 13t-13 32t14 32t35 13q-19 30 -59 30q-50 0 -50 -85v-770q0 -71 -37 -103t-93 -32q-41 0 -70.5 25t-29.5 60q0 19 13 32t32 13t32 -13t13 -32t-14 -32t-35 -13q19 -30 59 -30
q50 0 50 85z" />
    <glyph glyph-name="approxequal" unicode="&#x2248;" horiz-adv-x="474" 
d="M268 379l-74 27q-52 16 -90 7t-46 -32l-10 4q19 51 64 70t99 -2l73 -26q53 -18 89.5 -12.5t44.5 27.5l10 -4q-18 -50 -62 -65t-98 6zM268 259l-74 27q-53 16 -90.5 7t-45.5 -32l-10 4q19 51 64 69.5t99 -1.5l73 -27q53 -17 89 -11.5t45 27.5l10 -4q-18 -51 -62 -65.5
t-98 6.5z" />
    <glyph glyph-name="notequal" unicode="&#x2260;" horiz-adv-x="410" 
d="M40 385v50h185l81 140l43 -25l-66 -115h87v-50h-116l-41 -70h157v-50h-186l-80 -140l-43 25l66 115h-87v50h116l40 70h-156z" />
    <glyph glyph-name="lessequal" unicode="&#x2264;" horiz-adv-x="414" 
d="M48 158v50h312v-50h-312zM48 383v54l312 145v-53l-258 -119l258 -119v-53z" />
    <glyph glyph-name="greaterequal" unicode="&#x2265;" horiz-adv-x="414" 
d="M366 208v-50h-312v50h312zM366 437v-54l-312 -145v53l258 119l-258 119v53z" />
    <glyph glyph-name="lozenge" unicode="&#x25ca;" horiz-adv-x="487" 
d="M272 845l198 -422l-198 -423h-57l-198 423l198 422h57zM65 423l178 -384l179 384l-179 382z" />
    <glyph glyph-name="commaaccent" unicode="&#xf6c3;" horiz-adv-x="125" 
d="M32 -50h20q22 0 37.5 -15t15.5 -37t-15.5 -37.5t-37.5 -15.5h-32l2 10h20q28 0 28 23q0 22 -28 22h-10v50z" />
    <glyph glyph-name="ampersand.alt" horiz-adv-x="593" 
d="M208 710q41 0 70.5 -38t29.5 -92q0 -9 -1.5 -24.5t-17.5 -57.5t-44 -77l121 -211q10 38 18 61t21 50t30 40.5t38 13.5q19 0 32 -13.5t13 -31.5q0 -19 -13 -32t-32 -13q-17 0 -30 11t-15 28q-26 -30 -54 -128l39 -66q15 -25 22.5 -36t24 -30.5t35.5 -28t42 -8.5
q35 0 52 29l9 -5q-36 -61 -99 -61q-56 0 -88 22t-57 64l-11 18q-45 -104 -135 -104q-78 0 -129 50t-51 130q0 25 9.5 50t29 49.5t34.5 40.5t40.5 39.5t31.5 29.5l4 4l-64 110q-11 19 -17.5 41t-7.5 34v12q0 54 35 92t85 38zM208 0q83 0 128 107l-154 267l-3 -3
q-71 -74 -71 -201q0 -71 28 -120.5t72 -49.5zM208 700q-26 0 -44.5 -23.5t-18.5 -56.5q0 -11 4 -24.5t8 -21.5l4 -7l78 -136q26 34 41 71t16 58l2 20q0 50 -26.5 85t-63.5 35z" />
    <glyph glyph-name="eight.alt" horiz-adv-x="416" 
d="M218 -10h-20q-66 0 -113 47t-47 113v55q0 56 38 100t90 56q-49 16 -83.5 58.5t-34.5 95.5v35q0 66 47 113t113 47t113 -47t47 -113v-35q0 -53 -34.5 -95.5t-83.5 -58.5q52 -12 90 -56.5t38 -99.5v-55q0 -66 -47 -113t-113 -47zM198 0h20q37 0 58.5 43t21.5 107v55
q0 65 -23.5 107.5t-66.5 42.5t-66.5 -42.5t-23.5 -107.5v-55q0 -62 23.5 -106t56.5 -44zM288 515v35q0 64 -21.5 107t-58.5 43t-58.5 -43t-21.5 -107v-35q0 -63 22 -106.5t58 -43.5q37 0 58.5 43t21.5 107z" />
    <glyph glyph-name="s.alt" horiz-adv-x="300" 
d="M84 400q0 -30 19.5 -53.5t47.5 -41.5t56 -38.5t47.5 -55.5t19.5 -81q0 -58 -33 -96.5t-87 -38.5q-62 0 -98 47q-12 -9 -12 -42h-10v120h10q0 -46 30.5 -79.5t69.5 -33.5q34 0 57 30t23 73q0 30 -19.5 53.5t-47.5 41.5t-56 38.5t-47.5 55.5t-19.5 81q0 53 30 89t80 36
q52 0 86 -38q14 7 14 33h10v-110h-10q0 43 -27 73t-60 30q-31 0 -52 -27t-21 -66z" />
    <glyph glyph-name="f.alt" horiz-adv-x="204" 
d="M142 450v-440h40v-10h-160v10h40v480h-40v10h40q0 40 -7 73t-7 57q0 33 23.5 54t55.5 21q30 0 52.5 -19t22.5 -46q0 -19 -13 -32t-32 -13t-32 13t-13 32t13.5 32t34.5 13q-15 10 -32 10q-18 0 -29 -14.5t-11 -32.5q0 -26 21.5 -82t24.5 -66h48v-10h-45q5 -23 5 -40z" />
    <glyph glyph-name="j.alt" horiz-adv-x="199" 
d="M95 -90q0 -19 -13.5 -32t-34.5 -13q15 -10 32 -10q18 0 29 14.5t11 32.5q0 28 -27 95t-27 103v390h-40v10h120v-450q0 -40 7 -73t7 -57q0 -33 -23.5 -54t-55.5 -21q-30 0 -52.5 19t-22.5 46q0 19 13 32t32 13t32 -13t13 -32zM55 620q0 21 14.5 35.5t35.5 14.5t35.5 -14.5
t14.5 -35.5t-14.5 -35.5t-35.5 -14.5t-35.5 14.5t-14.5 35.5z" />
    <glyph glyph-name="S.alt" horiz-adv-x="376" 
d="M89 580q0 -43 27 -80.5t65 -68t76 -64.5t65 -84.5t27 -112.5q0 -75 -45.5 -127.5t-114.5 -52.5q-63 0 -111.5 40t-48.5 95q0 19 13.5 32t31.5 13q19 0 32 -13t13 -32t-13 -32t-32 -13q-6 0 -9 1q16 -35 48.5 -56.5t65.5 -21.5q50 0 85 37t35 90q0 45 -27 83t-65 68.5
t-76 63t-65 83t-27 112.5q0 72 41 121t104 49q57 0 101 -37t44 -88q0 -19 -13.5 -32t-31.5 -13q-19 0 -32 13t-13 32t13 32t32 13q7 0 11 -2q-13 31 -39.5 50t-56.5 19q-46 0 -78 -34t-32 -83z" />
    <glyph glyph-name="question.alt" horiz-adv-x="341" 
d="M20 585q0 42 36.5 83.5t98.5 41.5q68 0 116.5 -47t48.5 -113q0 -54 -18.5 -97t-45 -73.5t-53 -62t-45 -79t-18.5 -108.5h-20q0 79 19 139.5t41 92t41 81t19 107.5q0 62 -25 106t-60 44q-79 0 -99 -71q3 1 9 1q19 0 32 -13t13 -32t-13 -32t-32 -13t-32 13t-13 32zM80 40
q0 21 14.5 35.5t35.5 14.5t35.5 -14.5t14.5 -35.5t-14.5 -35.5t-35.5 -14.5t-35.5 14.5t-14.5 35.5z" />
    <glyph glyph-name="R.alt" horiz-adv-x="415" 
d="M297 10l-107 330h-40v-330h40v-10h-160v10h40v680h-40v10h160q79 0 129.5 -46.5t50.5 -113.5v-40q0 -49 -28 -88.5t-76 -58.5l111 -343h40v-10h-157v10h37zM150 350h40q41 0 70.5 44t29.5 106v40q0 62 -29.5 106t-70.5 44h-40v-340z" />
    <glyph glyph-name="Q.alt" 
d="M169 -68v63q-54 13 -87 56t-33 99v400q0 67 45.5 113.5t114.5 46.5t114.5 -46.5t45.5 -113.5v-400q0 -56 -33.5 -99t-86.5 -56v-53h40v-10h-120zM289 150v400q0 64 -21.5 107t-58.5 43t-58.5 -43t-21.5 -107v-400q0 -64 21.5 -107t58.5 -43t58.5 43t21.5 107z" />
    </font>
</defs>
</svg>
